<svg width="94" height="71" viewBox="0 0 94 71" fill="none" xmlns="http://www.w3.org/2000/svg">
<path d="M4.18508 25.892C3.5427 25.892 3 26.4347 3 27.0771V45.2983C3 45.9534 3.53162 46.4863 4.18508 46.4863H4.36797C5.01036 46.4863 5.55306 45.9423 5.55306 45.2983V27.0809C5.5522 26.4365 5.0081 25.892 4.36492 25.892H4.18508ZM4.18508 22.892H4.36492C6.66739 22.892 8.55 24.7776 8.55306 27.0769V45.2983C8.55306 47.6006 6.67336 49.4863 4.36797 49.4863H4.18508C1.87969 49.4863 0 47.6068 0 45.2983V27.0771C0 24.7776 1.87969 22.892 4.18508 22.892Z" fill="#0F7CEA"/>
<path d="M37.1804 67.2043C37.8355 67.2043 38.3684 66.67 38.3684 66.0133V56.1711C38.3684 54.5143 39.7115 53.1711 41.3684 53.1711H45.4815C45.9386 53.1711 46.3248 52.7863 46.3248 52.3309V26.56H13.556V52.3309C13.556 52.7863 13.9436 53.1711 14.4023 53.1711H18.5124C20.1693 53.1711 21.5124 54.5143 21.5124 56.1711V66.0133C21.5124 66.6589 22.0551 67.2043 22.6975 67.2043H22.8774C23.5341 67.2043 24.0684 66.67 24.0684 66.0133V56.1711C24.0684 54.5143 25.4116 53.1711 27.0684 53.1711H32.8124C34.4693 53.1711 35.8124 54.5143 35.8124 56.1711V66.0133C35.8124 66.6589 36.3579 67.2043 37.0035 67.2043H37.1804ZM37.1804 70.2043H37.0035C34.7041 70.2043 32.8124 68.3246 32.8124 66.0133V56.1711H27.0684V66.0133C27.0684 68.3217 25.1858 70.2043 22.8774 70.2043H22.6975C20.3981 70.2043 18.5124 68.3246 18.5124 66.0133V56.1711H14.4023C12.2858 56.1711 10.556 54.4474 10.556 52.3309V23.56H49.3248V52.3309C49.3248 54.4474 47.5949 56.1711 45.4815 56.1711H41.3684V66.0133C41.3684 68.3217 39.4887 70.2043 37.1804 70.2043Z" fill="#0F7CEA"/>
<path d="M29.9433 6.90666C27.4163 6.90666 24.981 7.3783 22.7052 8.30847C22.5184 8.38482 22.3278 8.44105 22.1358 8.478C21.9738 8.60442 21.7979 8.71489 21.6103 8.80684C19.1275 10.0236 17.0551 11.7661 15.6171 13.846C14.5576 15.3785 13.8674 17.0706 13.5797 18.8189H46.3067C46.0189 17.0711 45.3284 15.3789 44.2685 13.8462C42.8303 11.7664 40.758 10.0237 38.2758 8.80657C38.0887 8.71485 37.9133 8.60472 37.7518 8.47872C37.5577 8.44164 37.3649 8.38486 37.1762 8.30753C34.9072 7.37798 32.4738 6.90666 29.9433 6.90666ZM17.6089 0.000259401C17.8368 0.000259401 18.0606 0.11105 18.1916 0.318073L21.5702 5.53147C24.1154 4.49121 26.9454 3.90666 29.9433 3.90666C32.9383 3.90666 35.7743 4.49121 38.3135 5.53147L41.698 0.318073C41.8292 0.111029 42.0517 0.000244142 42.2781 0.000259401C42.4089 0.00026703 42.5411 0.0373058 42.6574 0.114183C42.9782 0.321123 43.0712 0.755714 42.8613 1.07356L39.5965 6.11296C45.4844 8.99999 49.4596 14.4412 49.4595 20.6828C49.4595 21.0665 49.4385 21.4442 49.4056 21.8189H10.484C10.451 21.4442 10.427 21.0665 10.427 20.6828C10.427 14.4412 14.3992 8.99999 20.2901 6.11296L17.0224 1.07356C16.8125 0.755714 16.9055 0.320993 17.2263 0.114183C17.3438 0.0372925 17.477 0.000259401 17.6089 0.000259401Z" fill="#0F7CEA"/>
<path d="M54.1772 68.7055C50.3606 68.7055 47.3153 64.7585 44.2748 60.3613C41.0068 55.6425 38.5868 49.5271 37.6346 43.5823C37.124 40.3945 37.0415 37.3511 37.3893 34.5365C37.7603 31.5342 38.6183 28.8495 39.9394 26.5569C42.7994 21.5827 47.9708 18.4436 53.4362 18.3632L53.4397 18.3631L53.4433 18.363C53.4933 18.3621 53.5441 18.3615 53.5957 18.3615C55.8865 18.3615 58.1786 19.2712 60.201 20.0739C61.951 20.7682 63.4608 21.3672 64.8159 21.3672C66.0522 21.3672 67.5539 20.775 69.2927 20.0894C71.4875 19.224 74.2189 18.1469 76.9394 18.1469C77.2755 18.1469 77.6088 18.1632 77.9299 18.1952L77.9721 18.1994L78.0144 18.2012C80.223 18.2962 85.5897 19.0512 89.3503 23.8865C87.1715 25.453 82.211 29.842 82.2848 37.2762C82.3642 46.4073 88.9487 50.533 91.3415 51.7315C90.7188 53.5543 89.3507 56.997 86.9306 60.5337C85.5673 62.5249 84.1578 64.5835 82.5047 66.1373C80.7448 67.7915 79.0303 68.5786 77.1092 68.6144C77.0455 68.6156 76.9829 68.6161 76.9206 68.6161C74.9637 68.6161 73.6034 68.0276 72.1632 67.4045L72.1502 67.3989C70.4956 66.6829 68.6211 65.8717 65.7269 65.8717C62.7039 65.8717 60.745 66.7066 59.0167 67.4431C57.5858 68.0525 56.2356 68.6275 54.3768 68.7016C54.3107 68.7042 54.2452 68.7055 54.1772 68.7055Z" fill="white"/>
<path d="M76.9394 19.6469C74.5039 19.6469 72.0277 20.6233 69.843 21.4848C67.9619 22.2266 66.3373 22.8672 64.8159 22.8672C63.1741 22.8672 61.5409 22.2192 59.6476 21.4681C57.6575 20.6782 55.5997 19.8615 53.5957 19.8615C53.5541 19.8615 53.5132 19.8619 53.4728 19.8627C53.468 19.8628 53.4631 19.8629 53.4583 19.863C48.519 19.9356 43.8375 22.7866 41.2391 27.3058C40.0186 29.4237 39.2242 31.9183 38.878 34.7205C38.5475 37.3949 38.6275 40.2967 39.1157 43.3451C40.0336 49.076 42.3633 54.9665 45.5086 59.5082C47.212 61.9716 48.655 63.895 50.1608 65.2749C51.5982 66.592 52.8744 67.2055 54.1772 67.2055C54.2253 67.2055 54.2715 67.2046 54.317 67.2028C55.9009 67.1396 57.0718 66.641 58.4286 66.0632C60.1969 65.3096 62.3976 64.3717 65.7269 64.3717C68.9317 64.3717 71.0461 65.2867 72.7458 66.0222L72.7587 66.0278C74.1642 66.6359 75.2742 67.1161 76.9206 67.1161C76.9736 67.1161 77.0269 67.1156 77.0813 67.1146C78.608 67.0862 80.0049 66.4283 81.4774 65.0443C83.012 63.6019 84.3748 61.6115 85.6927 59.6866C87.5647 56.9509 88.7794 54.2764 89.4919 52.4289C88.4197 51.7878 87.0901 50.8455 85.792 49.5361C82.5576 46.2736 80.8262 42.038 80.7849 37.2911C80.7168 30.4309 84.5559 25.9485 87.1868 23.6869C83.908 20.3429 79.7577 19.7776 77.9499 19.6999C77.8935 19.6974 77.8372 19.6934 77.781 19.6878C77.5092 19.6607 77.2261 19.6469 76.9394 19.6469ZM76.9394 16.6469C77.3243 16.6469 77.7075 16.6656 78.0788 16.7026C80.6375 16.8127 86.9928 17.7272 91.1392 23.7952C91.2267 23.9232 91.2589 24.0816 91.2281 24.2337C91.1972 24.3861 91.1063 24.5194 90.9758 24.6034L90.9196 24.6384C89.7149 25.3837 83.7076 29.4959 83.7848 37.2613C83.8679 46.8193 91.7727 50.3261 92.6738 50.6946C92.6814 50.6979 92.7086 50.7092 92.716 50.7126C92.9832 50.8353 93.1149 51.1396 93.0216 51.4183L93.0018 51.4807C92.5123 53.0492 91.0612 57.1535 88.1685 61.3808C85.3965 65.4295 82.2545 70.0188 77.1372 70.1141C77.0642 70.1155 76.9922 70.1161 76.9206 70.1161C74.6467 70.1161 73.0783 69.4348 71.5546 68.7756C69.9599 68.0855 68.3109 67.3717 65.7269 67.3717C63.0108 67.3717 61.2791 68.1095 59.6048 68.823C58.1135 69.4581 56.571 70.1153 54.4366 70.2004C54.3487 70.2039 54.2628 70.2055 54.1772 70.2055C49.6341 70.2055 46.3172 65.9524 43.0411 61.2144C36.4777 51.7374 32.7046 36.1074 38.6398 25.8079C41.761 20.3793 47.4225 16.9515 53.4141 16.8633C53.4737 16.8621 53.5343 16.8615 53.5957 16.8615C56.1726 16.8615 58.6068 17.8273 60.7543 18.6797C62.3603 19.3168 63.7471 19.8672 64.8159 19.8672C65.767 19.8672 67.146 19.3235 68.7425 18.6939C71.0553 17.782 73.9342 16.6469 76.9394 16.6469Z" fill="#0F7CEA"/>
<path d="M65.1178 15.5905C65.0465 14.0909 65.3279 12.5117 65.9576 10.8844C66.5776 9.28206 67.5293 7.69265 68.6374 6.40896L68.6401 6.40587L68.6427 6.40276C69.777 5.07422 71.3573 3.85226 73.0927 2.96198C74.486 2.24717 75.9308 1.7703 77.2502 1.58253C77.3369 4.78367 76.0829 8.24664 73.8012 11.0146C71.5037 13.7926 68.189 15.5361 65.1178 15.5905Z" fill="white"/>
<path d="M75.6281 3.51166C75.0164 3.7172 74.3931 3.98073 73.7774 4.2966C72.2121 5.09964 70.7937 6.19351 69.7835 7.37671C69.78 7.38085 69.7764 7.38498 69.7729 7.3891C68.4593 8.91081 67.0686 11.3301 66.7015 13.8812C68.8511 13.3742 71.0529 11.9841 72.6437 10.0605C73.7564 8.71073 74.6248 7.1341 75.1552 5.50104C75.3706 4.83808 75.5287 4.17069 75.6281 3.51166ZM78.1067 0C78.3952 7.62939e-06 78.6474 0.219561 78.6797 0.512602C79.1005 4.3488 77.7095 8.63155 74.9586 11.9687C72.3449 15.1291 68.5177 17.0919 64.97 17.0919C64.7209 17.0916 64.4709 17.082 64.226 17.0629C63.9551 17.0419 63.7359 16.8341 63.7003 16.5647C63.1313 12.2604 65.2911 7.99003 67.5019 5.4288C70.1034 2.38167 74.4559 0.148222 78.0842 0.000442505C78.0917 0.000146866 78.0992 0 78.1067 0Z" fill="#0F7CEA"/>
</svg>
