<svg xmlns="http://www.w3.org/2000/svg">
  <symbol id="icon" viewBox="0 0 122 71">
    <g id="abc">
		<path d="M4.18508 25.892C3.5427 25.892 3 26.4347 3 27.0771V45.2983C3 45.9534 3.53162 46.4863 4.18508 46.4863H4.36797C5.01036 46.4863 5.55306 45.9423 5.55306 45.2983V27.0809C5.5522 26.4365 5.0081 25.892 4.36492 25.892H4.18508ZM4.18508 22.892H4.36492C6.66739 22.892 8.55 24.7776 8.55306 27.0769V45.2983C8.55306 47.6006 6.67336 49.4863 4.36797 49.4863H4.18508C1.87969 49.4863 0 47.6068 0 45.2983V27.0771C0 24.7776 1.87969 22.892 4.18508 22.892Z"/>
		<path d="M55.1851 25.892C54.5427 25.892 54 26.4347 54 27.0771V45.2983C54 45.9534 54.5316 46.4863 55.1851 46.4863H55.368C56.0104 46.4863 56.5531 45.9423 56.5531 45.2983V27.0809C56.5522 26.4365 56.0081 25.892 55.3649 25.892H55.1851ZM55.1851 22.892H55.3649C57.6674 22.892 59.55 24.7776 59.5531 27.0769V45.2983C59.5531 47.6006 57.6734 49.4863 55.368 49.4863H55.1851C52.8797 49.4863 51 47.6068 51 45.2983V27.0771C51 24.7776 52.8797 22.892 55.1851 22.892Z"/>
		<path d="M37.1804 67.2043C37.8355 67.2043 38.3684 66.67 38.3684 66.0133V56.1711C38.3684 54.5143 39.7116 53.1711 41.3684 53.1711H45.4815C45.9386 53.1711 46.3248 52.7863 46.3248 52.3309V26.56H13.556V52.3309C13.556 52.7863 13.9436 53.1711 14.4023 53.1711H18.5125C20.1693 53.1711 21.5125 54.5143 21.5125 56.1711V66.0133C21.5125 66.6589 22.0552 67.2043 22.6976 67.2043H22.8774C23.5341 67.2043 24.0684 66.67 24.0684 66.0133V56.1711C24.0684 54.5143 25.4116 53.1711 27.0684 53.1711H32.8124C34.4693 53.1711 35.8124 54.5143 35.8124 56.1711V66.0133C35.8124 66.6589 36.3579 67.2043 37.0035 67.2043H37.1804ZM37.1804 70.2043H37.0035C34.7041 70.2043 32.8124 68.3246 32.8124 66.0133V56.1711H27.0684V66.0133C27.0684 68.3217 25.1858 70.2043 22.8774 70.2043H22.6976C20.3981 70.2043 18.5125 68.3246 18.5125 66.0133V56.1711H14.4023C12.2858 56.1711 10.556 54.4474 10.556 52.3309V23.56H49.3248V52.3309C49.3248 54.4474 47.5949 56.1711 45.4815 56.1711H41.3684V66.0133C41.3684 68.3217 39.4887 70.2043 37.1804 70.2043Z"/>
		<path d="M29.9433 6.90666C27.4163 6.90666 24.981 7.3783 22.7052 8.30847C22.5184 8.38482 22.3278 8.44105 22.1358 8.478C21.9738 8.60442 21.7979 8.71489 21.6103 8.80684C19.1275 10.0236 17.0551 11.7661 15.6171 13.846C14.5576 15.3785 13.8674 17.0706 13.5797 18.8189H46.3067C46.0189 17.0711 45.3284 15.3789 44.2685 13.8462C42.8303 11.7664 40.758 10.0237 38.2758 8.80657C38.0887 8.71485 37.9133 8.60472 37.7518 8.47872C37.5577 8.44164 37.3649 8.38486 37.1762 8.30753C34.9072 7.37798 32.4738 6.90666 29.9433 6.90666ZM17.6089 0.000259401C17.8368 0.000259401 18.0606 0.11105 18.1916 0.318073L21.5702 5.53147C24.1154 4.49121 26.9454 3.90666 29.9433 3.90666C32.9383 3.90666 35.7743 4.49121 38.3135 5.53147L41.698 0.318073C41.8292 0.111029 42.0517 0.000244142 42.2781 0.000259401C42.4089 0.00026703 42.5411 0.0373058 42.6574 0.114183C42.9782 0.321123 43.0712 0.755714 42.8613 1.07356L39.5965 6.11296C45.4844 8.99999 49.4596 14.4412 49.4595 20.6828C49.4595 21.0665 49.4385 21.4442 49.4056 21.8189H10.484C10.451 21.4442 10.427 21.0665 10.427 20.6828C10.427 14.4412 14.3992 8.99999 20.2901 6.11296L17.0224 1.07356C16.8125 0.755714 16.9055 0.320993 17.2263 0.114183C17.3438 0.0372925 17.477 0.000259401 17.6089 0.000259401Z"/>
		<path d="M105.813 19.6469C103.378 19.6469 100.902 20.6233 98.717 21.4848C96.8359 22.2266 95.2114 22.8672 93.6899 22.8672C92.0482 22.8672 90.4149 22.2192 88.5217 21.4681C86.5316 20.6782 84.4738 19.8615 82.4698 19.8615C82.4282 19.8615 82.3872 19.8619 82.3469 19.8627C82.342 19.8628 82.3372 19.8629 82.3323 19.863C77.3931 19.9356 72.7115 22.7866 70.1131 27.3058C68.8927 29.4237 68.0983 31.9183 67.752 34.7205C67.4215 37.3949 67.5015 40.2967 67.9898 43.3451C68.9077 49.076 71.2373 54.9665 74.3827 59.5082C76.086 61.9716 77.529 63.895 79.0349 65.2749C80.4722 66.592 81.7485 67.2055 83.0512 67.2055C83.0993 67.2055 83.1455 67.2046 83.191 67.2028C84.775 67.1396 85.9459 66.641 87.3027 66.0632C89.071 65.3096 91.2717 64.3717 94.601 64.3717C97.8057 64.3717 99.9202 65.2867 101.62 66.0222L101.633 66.0278C103.038 66.6359 104.148 67.1161 105.795 67.1161C105.848 67.1161 105.901 67.1156 105.955 67.1146C107.482 67.0862 108.879 66.4283 110.351 65.0443C111.886 63.6019 113.249 61.6115 114.567 59.6866C116.439 56.9509 117.653 54.2764 118.366 52.4289C117.294 51.7878 115.964 50.8455 114.666 49.5361C111.432 46.2736 109.7 42.038 109.659 37.2911C109.591 30.4309 113.43 25.9485 116.061 23.6869C112.782 20.3429 108.632 19.7776 106.824 19.6999C106.768 19.6974 106.711 19.6934 106.655 19.6878C106.383 19.6607 106.1 19.6469 105.813 19.6469ZM105.813 16.6469C106.198 16.6469 106.582 16.6656 106.953 16.7026C109.512 16.8127 115.867 17.7272 120.013 23.7952C120.101 23.9232 120.133 24.0816 120.102 24.2337C120.071 24.3861 119.98 24.5194 119.85 24.6034L119.794 24.6384C118.589 25.3837 112.582 29.4959 112.659 37.2613C112.742 46.8193 120.647 50.3261 121.548 50.6946C121.555 50.6979 121.583 50.7092 121.59 50.7126C121.857 50.8353 121.989 51.1396 121.896 51.4183L121.876 51.4807C121.386 53.0492 119.935 57.1535 117.043 61.3808C114.271 65.4295 111.129 70.0188 106.011 70.1141C105.938 70.1155 105.866 70.1161 105.795 70.1161C103.521 70.1161 101.952 69.4348 100.429 68.7756C98.834 68.0855 97.185 67.3717 94.601 67.3717C91.8848 67.3717 90.1532 68.1095 88.4789 68.823C86.9875 69.4581 85.4451 70.1153 83.3106 70.2004C83.2227 70.2039 83.1369 70.2055 83.0512 70.2055C78.5082 70.2055 75.1913 65.9524 71.9151 61.2144C65.3518 51.7374 61.5787 36.1074 67.5138 25.8079C70.6351 20.3793 76.2966 16.9515 82.2882 16.8633C82.3478 16.8621 82.4083 16.8615 82.4698 16.8615C85.0466 16.8615 87.4808 17.8273 89.6284 18.6797C91.2343 19.3168 92.6212 19.8672 93.6899 19.8672C94.641 19.8672 96.02 19.3235 97.6165 18.6939C99.9294 17.782 102.808 16.6469 105.813 16.6469Z"/>
		<path d="M104.502 3.51166C103.89 3.7172 103.267 3.98073 102.651 4.2966C101.086 5.09964 99.6677 6.19351 98.6576 7.37671C98.6541 7.38085 98.6505 7.38498 98.6469 7.3891C97.3334 8.91081 95.9427 11.3301 95.5755 13.8812C97.7252 13.3742 99.9269 11.9841 101.518 10.0605C102.63 8.71073 103.499 7.1341 104.029 5.50104C104.245 4.83808 104.403 4.17069 104.502 3.51166ZM106.981 0C107.269 7.62939e-06 107.521 0.219561 107.554 0.512602C107.975 4.3488 106.584 8.63155 103.833 11.9687C101.219 15.1291 97.3918 17.0919 93.844 17.0919C93.595 17.0916 93.345 17.082 93.1001 17.0629C92.8292 17.0419 92.61 16.8341 92.5743 16.5647C92.0053 12.2604 94.1651 7.99003 96.376 5.4288C98.9775 2.38167 103.33 0.148222 106.958 0.000442505C106.966 0.000146866 106.973 0 106.981 0Z"/>
    </g>
  </symbol>
</svg>

<svg width="122" height="71" viewBox="0 0 122 71" fill="none" xmlns="http://www.w3.org/2000/svg">
</svg>
