<svg width="28" height="28" viewBox="0 0 28 28" fill="none" xmlns="http://www.w3.org/2000/svg">
<g clip-path="url(#clip0)">
<path d="M27.071 4.512C27.0302 3.32833 26.5417 2.20426 25.7042 1.36679C24.8667 0.529313 23.7427 0.0408349 22.559 0L4.512 0C3.32833 0.0408349 2.20426 0.529313 1.36679 1.36679C0.529313 2.20426 0.0408349 3.32833 0 4.512L0 22.559C0.0408349 23.7427 0.529313 24.8667 1.36679 25.7042C2.20426 26.5417 3.32833 27.0302 4.512 27.071H13.535V16.844H10.227V12.332H13.536V10.575C13.536 7.543 15.812 4.813 18.612 4.813H22.259V9.325H18.611C18.211 9.325 17.746 9.81 17.746 10.535V12.335H22.258V16.847H17.747V27.071H22.56C23.7437 27.0302 24.8677 26.5417 25.7052 25.7042C26.5427 24.8667 27.0312 23.7427 27.072 22.559L27.071 4.512Z" fill="white"/>
</g>
<defs>
<clipPath id="clip0">
<rect width="27.071" height="27.071" fill="white"/>
</clipPath>
</defs>
</svg>
