<svg id="facebook-logo" xmlns="http://www.w3.org/2000/svg" width="27.071" height="27.071" viewBox="0 0 27.071 27.071">
  <path id="Facebook__x28_alt_x29_" d="M27.071,4.512A4.676,4.676,0,0,0,22.559,0H4.512A4.676,4.676,0,0,0,0,4.512V22.559a4.676,4.676,0,0,0,4.512,4.512h9.023V16.844H10.227V12.332h3.309V10.575c0-3.032,2.276-5.762,5.076-5.762h3.647V9.325H18.611c-.4,0-.865.485-.865,1.21v1.8h4.512v4.512H17.747V27.071h4.813a4.676,4.676,0,0,0,4.512-4.512Z" transform="translate(0 0)" fill="#a3a3a3"/>
</svg>
