<svg width="28" height="22" viewBox="0 0 28 22" fill="none" xmlns="http://www.w3.org/2000/svg">
<g clip-path="url(#clip0)">
<path d="M13.578 4.36298L3.892 12.348C3.89119 12.3649 3.88851 12.3817 3.884 12.398C3.8795 12.4143 3.87682 12.4311 3.876 12.448V20.533C3.88013 20.8176 3.99504 21.0894 4.19631 21.2907C4.39759 21.4919 4.66939 21.6068 4.954 21.611H11.422V15.144H15.735V21.613H22.203C22.4872 21.6078 22.7582 21.4923 22.9588 21.291C23.1594 21.0896 23.2739 20.8182 23.278 20.534V12.449C23.2796 12.4148 23.2738 12.3807 23.261 12.349L13.578 4.36298Z" fill="white"/>
<path d="M26.971 10.528L23.282 7.46198V0.589977C23.2848 0.518441 23.2728 0.447096 23.2467 0.380428C23.2206 0.31376 23.181 0.25321 23.1304 0.202587C23.0798 0.151964 23.0192 0.112365 22.9526 0.0862732C22.8859 0.0601817 22.8145 0.0481616 22.743 0.0509758H19.509C19.4375 0.0481616 19.3661 0.0601817 19.2995 0.0862732C19.2328 0.112365 19.1722 0.151964 19.1216 0.202587C19.071 0.25321 19.0314 0.31376 19.0053 0.380428C18.9792 0.447096 18.9672 0.518441 18.97 0.589977V3.87498L14.86 0.438976C14.4937 0.155168 14.0434 0.00115967 13.58 0.00115967C13.1166 0.00115967 12.6663 0.155168 12.3 0.438976L0.188002 10.528C0.132638 10.5713 0.0872741 10.6261 0.0550029 10.6886C0.0227317 10.751 0.00431268 10.8197 0.00100186 10.89C-0.0142523 11.0337 0.0281922 11.1776 0.119002 11.29L1.163 12.537C1.2551 12.639 1.38069 12.7046 1.517 12.722C1.6599 12.7295 1.80107 12.6879 1.917 12.604L13.574 2.88398L25.231 12.604C25.3304 12.6855 25.4566 12.7272 25.585 12.721H25.636C25.7723 12.7036 25.8979 12.638 25.99 12.536L27.034 11.29C27.1245 11.1774 27.1665 11.0335 27.151 10.89C27.1484 10.8203 27.131 10.752 27.1 10.6896C27.069 10.6272 27.025 10.5721 26.971 10.528V10.528Z" fill="white"/>
</g>
<defs>
<clipPath id="clip0">
<rect width="27.158" height="21.612" fill="white"/>
</clipPath>
</defs>
</svg>
