<svg xmlns="http://www.w3.org/2000/svg">
  <symbol id="icon" viewBox="0 0 27.158 21.612">
	  <g id="home-2" transform="translate(-1.867 -48.48)">
		<g id="Group_5" data-name="Group 5" transform="translate(1.867 48.48)">
		  <path id="Path_28" data-name="Path 28" d="M75.4,120.939l-9.686,7.985a.229.229,0,0,1-.008.05.23.23,0,0,0-.008.05v8.085a1.094,1.094,0,0,0,1.078,1.078h6.468V131.72h4.313v6.469h6.468A1.095,1.095,0,0,0,85.1,137.11v-8.085a.237.237,0,0,0-.017-.1Z" transform="translate(-61.822 -116.576)"/>
		  <path id="Path_29" data-name="Path 29" d="M26.97,57.522l-3.689-3.066V47.584a.519.519,0,0,0-.539-.539H19.508a.519.519,0,0,0-.539.539v3.285l-4.11-3.436a2.09,2.09,0,0,0-2.56,0L.187,57.522A.489.489,0,0,0,0,57.884a.545.545,0,0,0,.118.4l1.044,1.247a.575.575,0,0,0,.354.185.626.626,0,0,0,.4-.118l11.657-9.72,11.657,9.72a.519.519,0,0,0,.354.117h.051a.575.575,0,0,0,.354-.185l1.044-1.246a.545.545,0,0,0,.117-.4A.491.491,0,0,0,26.97,57.522Z" transform="translate(0.001 -46.994)"/>
		</g>
	  </g>
  </symbol>
</svg>