<svg xmlns="http://www.w3.org/2000/svg" width="24.076" height="24.077" viewBox="0 0 24.076 24.077">
  <path id="LinkedIn__x28_alt_x29_" d="M22.3,0H1.781A1.752,1.752,0,0,0,0,1.725V22.351a1.753,1.753,0,0,0,1.779,1.726H22.3a1.752,1.752,0,0,0,1.778-1.726V1.725A1.752,1.752,0,0,0,22.3,0ZM7.3,20.154H3.663V9.283H7.3ZM5.483,7.8H5.458a1.884,1.884,0,1,1,.047-3.756A1.885,1.885,0,1,1,5.483,7.8ZM20.414,20.154H16.778V14.338c0-1.461-.527-2.459-1.842-2.459A1.987,1.987,0,0,0,13.07,13.2a2.429,2.429,0,0,0-.121.88v6.072H9.313s.048-9.851,0-10.87h3.636v1.541a3.611,3.611,0,0,1,3.277-1.8c2.394,0,4.188,1.553,4.188,4.893Zm-7.488-9.295c.006-.01.015-.022.024-.034v.034Z" transform="translate(-0.002)" fill="#fff"/>
</svg>
