<svg width="28" height="28" viewBox="0 0 28 28" fill="none" xmlns="http://www.w3.org/2000/svg">
<g clip-path="url(#clip0)">
<path d="M25.072 -1.22457e-05H1.998C1.73929 -0.00398203 1.48233 0.0430518 1.2418 0.138403C1.00126 0.233754 0.781871 0.375555 0.596148 0.555706C0.410425 0.735858 0.262009 0.950831 0.159378 1.18835C0.0567473 1.42587 0.00191088 1.68127 -0.0019989 1.93999L-0.0019989 25.131C0.00616111 25.6534 0.221409 26.1512 0.596436 26.515C0.971464 26.8787 1.47558 27.0787 1.998 27.071H25.072C25.3307 27.075 25.5877 27.0279 25.8282 26.9326C26.0687 26.8372 26.2881 26.6954 26.4739 26.5153C26.6596 26.3351 26.808 26.1201 26.9106 25.8826C27.0133 25.6451 27.0681 25.3897 27.072 25.131V1.93999C27.0681 1.68127 27.0133 1.42587 26.9106 1.18835C26.808 0.950831 26.6596 0.735858 26.4739 0.555706C26.2881 0.375555 26.0687 0.233754 25.8282 0.138403C25.5877 0.0430518 25.3307 -0.00398203 25.072 -1.22457e-05V-1.22457e-05ZM8.207 22.66H4.117V10.438H8.207V22.66ZM6.162 8.76799H6.135C5.84368 8.78689 5.5516 8.74537 5.27709 8.64603C5.00258 8.54668 4.75157 8.39166 4.53982 8.1907C4.32807 7.98974 4.16016 7.74717 4.04661 7.47822C3.93306 7.20928 3.87634 6.91976 3.88001 6.62785C3.88367 6.33594 3.94764 6.04795 4.0679 5.78193C4.18816 5.51592 4.36211 5.27765 4.57884 5.08206C4.79556 4.88647 5.05038 4.7378 5.3273 4.64538C5.60422 4.55296 5.89725 4.51878 6.188 4.54499C6.48036 4.5222 6.77426 4.56035 7.05112 4.65701C7.32798 4.75367 7.58175 4.90674 7.7964 5.10654C8.01105 5.30633 8.18189 5.54851 8.29811 5.81774C8.41434 6.08697 8.47341 6.37739 8.47161 6.67063C8.4698 6.96387 8.40715 7.25354 8.28762 7.52132C8.16809 7.78909 7.99428 8.02915 7.77719 8.22629C7.5601 8.42343 7.30446 8.57336 7.02643 8.6666C6.74841 8.75985 6.45406 8.79437 6.162 8.76799V8.76799ZM22.951 22.66H18.862V16.121C18.862 14.478 18.27 13.357 16.791 13.357C16.3304 13.3581 15.8813 13.5016 15.5054 13.7678C15.1295 14.034 14.845 14.4099 14.691 14.844C14.5852 15.1628 14.5391 15.4984 14.555 15.834V22.66H10.469C10.469 22.66 10.522 11.584 10.469 10.438H14.558V12.171C14.9294 11.5303 15.469 11.0034 16.1184 10.6474C16.7677 10.2913 17.5021 10.1197 18.242 10.151C20.933 10.151 22.951 11.897 22.951 15.651V22.66ZM14.531 12.21C14.538 12.199 14.548 12.185 14.557 12.171V12.21H14.531Z" fill="white"/>
</g>
<defs>
<clipPath id="clip0">
<rect width="27.071" height="27.071" fill="white"/>
</clipPath>
</defs>
</svg>
