<svg id="linkedin-logo" xmlns="http://www.w3.org/2000/svg" width="27.071" height="27.071" viewBox="0 0 27.071 27.071">
  <path id="LinkedIn__x28_alt_x29_" d="M25.074,0H2A1.97,1.97,0,0,0,0,1.94V25.131a1.971,1.971,0,0,0,2,1.94H25.074a1.97,1.97,0,0,0,2-1.94V1.94A1.97,1.97,0,0,0,25.074,0ZM8.209,22.66H4.119V10.438h4.09ZM6.164,8.768H6.137A2.118,2.118,0,1,1,6.19,4.545a2.119,2.119,0,1,1-.026,4.223ZM22.953,22.66H18.864V16.121c0-1.643-.592-2.764-2.071-2.764a2.234,2.234,0,0,0-2.1,1.487,2.732,2.732,0,0,0-.136.99V22.66H10.471s.053-11.076,0-12.222H14.56v1.733a4.06,4.06,0,0,1,3.684-2.02c2.691,0,4.709,1.746,4.709,5.5V22.66ZM14.533,12.21c.007-.011.017-.025.026-.039v.039Z" transform="translate(-0.002)" fill="#a3a3a3"/>
</svg>
