<svg xmlns="http://www.w3.org/2000/svg" width="160.294" height="140.736" viewBox="0 0 160.294 140.736">
  <g id="Kry7Uz" transform="translate(-105.584 57.842)">
    <g id="Group_2" data-name="Group 2" transform="translate(55.731 15.158)">
      <g id="Group_1" data-name="Group 1" transform="translate(0 0)">
        <g id="Group_6" data-name="Group 6" transform="translate(49.853 32.713)">
          <path id="Path_1" data-name="Path 1" d="M21.071,32.308c.578,0,1.157-.013,1.735-.009,4,.034,7.994.093,11.992.1,2.344,0,4.688-.081,7.032-.124.373-.006.746,0,1.144,0l.463,6.567c-.359.011-.7.028-1.05.03-.255,0-.323-.2-.386-.4-.194-.593-.376-1.193-.584-1.782-.141-.4-.306-.791-.482-1.176a1.667,1.667,0,0,0-1.5-1.063c-.534-.033-1.067-.1-1.6-.1-2.525-.011-5.048-.006-7.573-.006h-.808l-.2,9.931a4.524,4.524,0,0,0,.568.068q3.149-.028,6.3-.067c.2,0,.4-.03.6-.041A1.374,1.374,0,0,0,38.053,43.2c.2-.659.359-1.335.537-2,.067-.256.139-.511.216-.793h1.3a55.255,55.255,0,0,0,.007,9.7H38.808c-.1-.44-.2-.89-.306-1.341-.093-.413-.174-.83-.276-1.241-.226-.921-.544-1.2-1.467-1.262-.845-.053-1.694-.091-2.54-.1-1.362-.016-2.725,0-4.087,0h-.806c-.117,3.794.091,7.509.063,11.275.248.021.44.053.632.054,2.949,0,5.9-.03,8.845.013a3.459,3.459,0,0,0,3.312-1.85c.465-.814.945-1.62,1.41-2.434.525-.918.6-.954,1.8-.726l-2.351,7.181c-.3,0-.588.009-.871,0-5.76-.194-11.521-.221-17.283-.125-1.271.02-2.542.07-3.813.105V58.581c.236-.063.471-.131.71-.185.891-.2,1.789-.379,2.673-.609.83-.215.975-.414,1.035-1.254.041-.578.074-1.158.077-1.738q.036-8,.051-16c0-1.158-.093-2.317-.107-3.477a1.075,1.075,0,0,0-.988-1.14c-1.153-.258-2.3-.529-3.451-.794Z" transform="translate(-21.071 -32.27)" fill="#a3a3a3"/>
          <path id="Path_2" data-name="Path 2" d="M69.683,65.044c-.7-.128-1.4-.243-2.1-.386a8.582,8.582,0,0,1-4.467-2.548L64.6,59.929c.159.135.266.211.354.3a7.423,7.423,0,0,0,5.088,2.233,8.342,8.342,0,0,0,3.436-.394,4.817,4.817,0,0,0,3.438-4.624c.044-1.019.007-2.041.007-3.188-.223.229-.374.379-.518.532a7.788,7.788,0,0,1-4.267,2.493,7.986,7.986,0,0,1-9.072-4.554,11.134,11.134,0,0,1-.995-4.143,12.772,12.772,0,0,1,.911-6.033A8.083,8.083,0,0,1,73.2,38.043a7.583,7.583,0,0,1,3.127,2.121c.149.162.3.327.542.6.178-.924-.007-1.765.144-2.623H79.9c.023.219.067.453.068.685,0,5.963.011,11.926-.009,17.888a12.979,12.979,0,0,1-.252,2.459,6.506,6.506,0,0,1-3.885,4.8,11.717,11.717,0,0,1-3.273.922c-.242.036-.48.1-.719.147Zm7.274-17.5c0-1.183-.021-2.365.01-3.548a1.814,1.814,0,0,0-.5-1.331,7.1,7.1,0,0,0-3.481-2.149,6.184,6.184,0,0,0-4.13.233,5.865,5.865,0,0,0-3.29,3.918,9.866,9.866,0,0,0-.376,3.707,8.068,8.068,0,0,0,.882,3.271,5.423,5.423,0,0,0,3.665,2.99,6.788,6.788,0,0,0,6.884-2.428,1.46,1.46,0,0,0,.346-1.047C76.949,49.953,76.957,48.748,76.957,47.543Z" transform="translate(-3.736 -30.02)" fill="#a3a3a3"/>
          <path id="Path_8" data-name="Path 8" d="M123.877,59.669a66.529,66.529,0,0,0-9.632-.014c-.024-.235-.057-.406-.058-.578-.006-.532,0-.582.521-.669a6.568,6.568,0,0,0,4.241-2.684c2.357-3.06,4.755-6.09,7.133-9.134.122-.157.221-.332.342-.518-.091-.162-.165-.323-.265-.465-2.074-2.965-4.123-5.946-6.235-8.882-1.536-2.133-1.738-2.22-4.25-2.982-.34-.1-.68-.213-1.019-.324-.038-.013-.07-.053-.13-.1V32.3c2.018.04,4,.114,5.973.11,1.96,0,3.921-.087,5.933-.135v1.109c-.475.127-.946.246-1.415.38a9.642,9.642,0,0,0-1.019.324c-.564.232-.649.482-.4,1.055a2.1,2.1,0,0,0,.154.3q2.329,3.6,4.665,7.193a4.894,4.894,0,0,0,.359.4,4.038,4.038,0,0,1,.229-.447c1.746-2.485,3.505-4.96,5.239-7.453.558-.8.453-1.036-.485-1.289-.6-.162-1.208-.3-1.837-.451V32.279c1.645.048,3.248.13,4.849.134,1.581,0,3.162-.074,4.8-.117v1.084c-.36.091-.719.2-1.086.273a5.72,5.72,0,0,0-3.641,2.19q-3.339,4.361-6.685,8.717a3.32,3.32,0,0,0-.185.324c.135.221.262.455.413.672q3.851,5.563,7.707,11.125a2.874,2.874,0,0,0,1.432,1.057c.565.2,1.146.371,1.719.554.231.074.461.145.712.225v1.164a83.593,83.593,0,0,0-11.344.006,2.9,2.9,0,0,1-.084-.387c-.044-.773-.031-.784.734-1,.538-.151,1.077-.293,1.605-.471.578-.194.695-.448.487-1.023a3.892,3.892,0,0,0-.381-.781q-2.5-3.849-5.008-7.69a3.946,3.946,0,0,0-.3-.35c-.162.188-.319.342-.444.515q-2.713,3.744-5.415,7.493a6.007,6.007,0,0,0-.421.685c-.357.665-.222,1.025.508,1.272.443.149.9.253,1.356.363C124.112,58.525,124.23,58.76,123.877,59.669Z" transform="translate(18.336 -32.267)" fill="#a3a3a3"/>
          <path id="Path_9" data-name="Path 9" d="M81.782,57.194H78.91c-.159-.588-.168-18.408-.013-19.068h2.864v2.441l.168.067a4.255,4.255,0,0,1,.364-.458,8.259,8.259,0,0,1,5.173-2.556,5.182,5.182,0,0,1,4.606,1.657,14.665,14.665,0,0,1,1.076,1.658c.085-.091.2-.208.309-.332a7.808,7.808,0,0,1,7.173-2.929,4.312,4.312,0,0,1,3.945,3.454,10.33,10.33,0,0,1,.273,2.317c.026,4.355.013,8.71.011,13.065,0,.2-.02.4-.036.682a19.611,19.611,0,0,1-2.922.007c-.019-.3-.047-.555-.047-.814q0-5.928-.006-11.858a10.467,10.467,0,0,0-.088-1.4c-.3-2.169-1.863-3.051-3.962-2.8a6.635,6.635,0,0,0-4.012,2.234,1.762,1.762,0,0,0-.5,1.324c.019,4.154.01,8.309.01,12.462v.834a20.2,20.2,0,0,1-3.007.026V56.28q0-6,0-11.993a8.045,8.045,0,0,0-.092-1.2,3.034,3.034,0,0,0-3.191-2.809,4.828,4.828,0,0,0-2.209.457,7.8,7.8,0,0,0-2.606,1.957,1.617,1.617,0,0,0-.416,1.153c.013,4.154.007,8.309.007,12.462Z" transform="translate(3.354 -30.017)" fill="#a3a3a3"/>
          <path id="Path_10" data-name="Path 10" d="M119.1,48.66c-1.772.017-3.463.006-5.153.009s-3.4,0-5.092,0h-5.125a5.246,5.246,0,0,0,0,.8,6.665,6.665,0,0,0,7.371,5.728,7.907,7.907,0,0,0,5.062-2.169,2.306,2.306,0,0,1,.242-.167c.507.574.927,1.215,1.409,1.887-.191.189-.352.366-.531.521a10.055,10.055,0,0,1-5.987,2.4,10.267,10.267,0,0,1-5.427-.868,9.217,9.217,0,0,1-5.289-7.412,10.68,10.68,0,0,1,.538-5.539,9.156,9.156,0,0,1,7.069-6.094,9.653,9.653,0,0,1,4.956.363,7.491,7.491,0,0,1,2.933,1.823C118.457,42.317,119.192,45.264,119.1,48.66Zm-2.946-2.29c-.2-2.405-1.059-4.4-3.154-5.519a6.165,6.165,0,0,0-6.615.27c-1.654,1.089-2.892,3.67-2.617,5.249Z" transform="translate(12.522 -30.022)" fill="#a3a3a3"/>
          <path id="Path_11" data-name="Path 11" d="M41.361,38.112h2.818c.2.8,0,1.607.151,2.5.2-.155.344-.26.478-.381a9.989,9.989,0,0,1,4.681-2.474A8.282,8.282,0,0,1,53.4,37.9a4.83,4.83,0,0,1,3.648,4.395,13.882,13.882,0,0,1,.118,1.867c.01,4.043,0,8.087,0,12.129v.9a18.982,18.982,0,0,1-3,.017v-.868c0-3.774.011-7.55-.01-11.324a10.973,10.973,0,0,0-.233-2.122,2.988,2.988,0,0,0-2.173-2.33,6.048,6.048,0,0,0-3.82.048,7.881,7.881,0,0,0-3.189,2.031,1.663,1.663,0,0,0-.491,1.257c.016,4.109.01,8.219.006,12.329,0,.306-.028.612-.046.968H41.4C41.22,56.672,41.182,38.937,41.361,38.112Z" transform="translate(-12.534 -30.02)" fill="#a3a3a3"/>
          <path id="Path_12" data-name="Path 12" d="M56.656,37.959H59.5c.019.289.051.566.051.845q0,8.7,0,17.406v.821a18.327,18.327,0,0,1-2.861.017C56.536,56.516,56.5,38.809,56.656,37.959Z" transform="translate(-6.054 -29.863)" fill="#a3a3a3"/>
        </g>
        <g id="Group_7" data-name="Group 7" transform="translate(86.853 -73)">
          <path id="Path_4" data-name="Path 4" d="M111.389,4.036A25.529,25.529,0,1,1,85.937-21.482,25.579,25.579,0,0,1,111.389,4.036Z" transform="translate(-44.95 40.503)" fill="#a3a3a3"/>
          <path id="Path_5" data-name="Path 5" d="M125.2-8.392c3.178,9.648,2.316,24.352-7.906,36.067A38.55,38.55,0,0,1,76.31,38.908,38.048,38.048,0,0,1,50.9,11.208,38.874,38.874,0,0,0,73.5,31.641a37.954,37.954,0,0,0,23.2.783,38.186,38.186,0,0,0,15.677-8.559,38.656,38.656,0,0,0,10.174-14.6A39.142,39.142,0,0,0,125.2-8.392Z" transform="translate(-48.94 46.043)" fill="#a3a3a3"/>
          <path id="Path_6" data-name="Path 6" d="M63.124-18.825A38.177,38.177,0,0,1,99.608-29.83,38.663,38.663,0,0,1,128.886.763c2.62,14.494-3.4,27.75-11.611,34.953a38.722,38.722,0,0,0,6.961-27.128A38.059,38.059,0,0,0,111.312-16.2a37.645,37.645,0,0,0-10.991-6.823,38.488,38.488,0,0,0-12.689-2.815A39.2,39.2,0,0,0,74.78-24.377,40.168,40.168,0,0,0,63.124-18.825Z" transform="translate(-43.768 36.549)" fill="#a3a3a3"/>
          <path id="Path_7" data-name="Path 7" d="M106.706-29.419a38.392,38.392,0,0,0-28.443,1.188A37.008,37.008,0,0,0,60.644-12.268a37.3,37.3,0,0,0-4.369,25.877A37.826,37.826,0,0,0,69.58,36.222c-1.265-.155-6.278-3.769-8.916-6.4a37.758,37.758,0,0,1-6.557-8.773,37.858,37.858,0,0,1,13.94-50.571C81.565-37.538,96.981-35.672,106.706-29.419Z" transform="translate(-49.524 34.847)" fill="#a3a3a3"/>
          <path id="Path_13" data-name="Path 13" d="M60.82,35.51a2.313,2.313,0,0,1-4.626.056,2.313,2.313,0,1,1,4.626-.056Z" transform="translate(-43.297 72.354)" fill="#a3a3a3"/>
        </g>
      </g>
    </g>
  </g>
</svg>
