<svg xmlns="http://www.w3.org/2000/svg">
  <symbol id="icon" viewBox="0 0 64 64">
    <g id="abc" transform="translate(-4.5)">
      <path id="Path_30" data-name="Path 30" d="M178.353,24.222a1.263,1.263,0,0,0-1.263,1.263V60.112A1.49,1.49,0,0,1,175.6,61.6H160.18a1.49,1.49,0,0,1-1.489-1.488V55.5h6.843a1.263,1.263,0,1,0,0-2.526h-6.843v-6.1h10.632a1.263,1.263,0,1,0,0-2.526H158.691v-6.1h6.843a1.263,1.263,0,1,0,0-2.526h-6.843v-6.1h6.843a1.263,1.263,0,1,0,0-2.526h-6.843v-6.1h6.843a1.263,1.263,0,1,0,0-2.526h-6.843v-6.1h10.632a1.263,1.263,0,1,0,0-2.526H158.691V4.014a1.49,1.49,0,0,1,1.489-1.488H175.6a1.484,1.484,0,0,1,1.058.443,1.454,1.454,0,0,1,.431,1.038l-.024,4.6v5.635a1.263,1.263,0,0,0,2.526,0V8.61l.023-4.59A4.018,4.018,0,0,0,175.6,0H160.18a4.019,4.019,0,0,0-4.015,4.014v56.1a4.019,4.019,0,0,0,4.015,4.014H175.6a4.019,4.019,0,0,0,4.015-4.014V25.485a1.263,1.263,0,0,0-1.263-1.263Z" transform="translate(-132.67 0)"/>
      <path id="Path_31" data-name="Path 31" d="M324.5,148.4a1.263,1.263,0,0,0-1.263,1.263v.023a1.263,1.263,0,0,0,2.526,0v-.023A1.263,1.263,0,0,0,324.5,148.4Z" transform="translate(-278.817 -129.818)"/>
      <path id="Path_32" data-name="Path 32" d="M18.843,62.142c0-.024-.007-.048-.011-.072s-.006-.032-.01-.048-.01-.042-.016-.063-.009-.033-.014-.048v0L13.469,45.57a1.26,1.26,0,0,0-.058-.147,1.917,1.917,0,0,0-.311-.477,1.9,1.9,0,0,0-3.17.506q-.025.057-.045.117L7.415,53.149c-.009.025-.017.05-.025.076L4.561,61.907v0c-.005.016-.009.032-.014.048s-.011.042-.016.063-.007.032-.01.048-.008.048-.011.072,0,.027,0,.041c0,.038-.006.077-.006.116v7.666a1.263,1.263,0,0,0,2.526,0v-6.4h3.388V86.584H7.025v-5.4a1.263,1.263,0,0,0-2.526,0V94.507A5.069,5.069,0,0,0,9.563,99.57H13.79a5.069,5.069,0,0,0,5.064-5.063V62.3c0-.039,0-.077-.006-.116C18.847,62.169,18.845,62.156,18.843,62.142ZM7.5,61.036l2.02-6.2h4.308l2.02,6.2Zm4.174-12.811,1.331,4.085H10.346ZM12.94,63.562h3.388V86.584H12.94Zm.85,33.482H9.563a2.54,2.54,0,0,1-2.537-2.536v-5.4h9.3v5.4A2.54,2.54,0,0,1,13.79,97.044Z" transform="translate(0 -38.758)"/>
      <path id="Path_33" data-name="Path 33" d="M5.763,286.207a1.263,1.263,0,0,0,1.263-1.263v-.023a1.263,1.263,0,0,0-2.526,0v.023A1.263,1.263,0,0,0,5.763,286.207Z" transform="translate(-0.001 -248.13)"/>
      <path id="Path_34" data-name="Path 34" d="M384.089,60.3c-1.374-3.026-2.743-6.119-4.067-9.11q-1.105-2.5-2.214-4.988a2.109,2.109,0,0,0-2.087-1.246h-.028A2.13,2.13,0,0,0,373.62,46.2q-1.012,2.274-2.018,4.551c-1.388,3.136-2.823,6.378-4.264,9.551-.976,2.15-.11,3.055.861,3.8a6.083,6.083,0,0,1,.613.514c.189.273.5,1.3.5,5.066V95.957a4.187,4.187,0,0,0,4.183,4.182h4.439a4.189,4.189,0,0,0,4.187-4.182V69.872a1.186,1.186,0,0,0,0-.425c.013-3.576.311-4.566.5-4.834a6.07,6.07,0,0,1,.611-.512C384.2,63.358,385.066,62.454,384.089,60.3Zm-14.451,1.045c1.446-3.183,2.884-6.431,4.274-9.573l.538-1.216v7.429a1.263,1.263,0,0,0,2.526,0v-7.43q.367.829.735,1.658c1.326,3,2.7,6.1,4.077,9.132a2.9,2.9,0,0,1,.192.519c-.077.067-.194.156-.287.226a8.2,8.2,0,0,0-.883.753c-.883.887-1.151,2.785-1.206,5.549h-7.779c-.055-2.765-.324-4.664-1.21-5.549a8.214,8.214,0,0,0-.883-.752c-.093-.071-.209-.16-.287-.226A2.9,2.9,0,0,1,369.638,61.348Zm8.295,36.265h-4.439a1.658,1.658,0,0,1-1.657-1.656V70.921h7.756V95.957A1.66,1.66,0,0,1,377.933,97.613Z" transform="translate(-317.02 -39.328)"/>
    </g>
  </symbol>
</svg>