<svg xmlns="http://www.w3.org/2000/svg">
  <symbol id="icon" viewBox="0 0 71 62">
    <g id="abc">
      <path id="Path_56" data-name="Path 56" d="M123.754,196.248a1.167,1.167,0,0,1-.759-.28l-7.583-6.457a1.172,1.172,0,0,1,0-1.785L123,181.269a1.172,1.172,0,1,1,1.519,1.784l-6.535,5.565,6.535,5.565a1.172,1.172,0,0,1-.761,2.065Zm0,0" transform="translate(-95.747 -150.688)"/>
      <path id="Path_57" data-name="Path 57" d="M250.88,196.248a1.172,1.172,0,0,1-.761-2.065l6.535-5.565-6.535-5.565a1.172,1.172,0,0,1,1.519-1.784l7.583,6.457a1.172,1.172,0,0,1,0,1.785l-7.583,6.457A1.167,1.167,0,0,1,250.88,196.248Zm0,0" transform="translate(-207.902 -150.688)"/>
      <path id="Path_58" data-name="Path 58" d="M190.128,177.808a1.192,1.192,0,0,1-.243-.025,1.172,1.172,0,0,1-.905-1.388l4.726-22.44a1.172,1.172,0,1,1,2.293.483l-4.726,22.44A1.172,1.172,0,0,1,190.128,177.808Zm0,0" transform="translate(-157.32 -127.405)"/>
      <path id="Path_59" data-name="Path 59" d="M63.116,62.628H7.869A7.877,7.877,0,0,1,0,54.76V7.869A7.878,7.878,0,0,1,7.869,0H63.116a7.878,7.878,0,0,1,7.869,7.869V54.76A7.877,7.877,0,0,1,63.116,62.628ZM7.869,2.344A5.531,5.531,0,0,0,2.344,7.869V54.76a5.531,5.531,0,0,0,5.525,5.525H63.116a5.531,5.531,0,0,0,5.525-5.525V7.869a5.531,5.531,0,0,0-5.525-5.525Zm0,0"/>
      <path id="Path_60" data-name="Path 60" d="M69.813,100.434H1.172a1.172,1.172,0,1,1,0-2.344H69.813a1.172,1.172,0,1,1,0,2.344Zm0,0" transform="translate(0 -81.668)"/>
      <path id="Path_61" data-name="Path 61" d="M101.158,41.706A3.709,3.709,0,1,1,104.867,38,3.714,3.714,0,0,1,101.158,41.706Zm0-5.074A1.365,1.365,0,1,0,102.523,38,1.367,1.367,0,0,0,101.158,36.633Zm0,0" transform="translate(-81.135 -28.548)"/>
      <path id="Path_62" data-name="Path 62" d="M33.1,41.492A3.709,3.709,0,1,1,36.8,37.783,3.713,3.713,0,0,1,33.1,41.492Zm0-5.074a1.365,1.365,0,1,0,1.365,1.365A1.367,1.367,0,0,0,33.1,36.418Zm0,0" transform="translate(-24.467 -28.37)"/>
      <path id="Path_63" data-name="Path 63" d="M169.224,41.921a3.708,3.708,0,1,1,3.709-3.709A3.713,3.713,0,0,1,169.224,41.921Zm0-5.074a1.365,1.365,0,1,0,1.365,1.365A1.366,1.366,0,0,0,169.224,36.847Zm0,0" transform="translate(-137.806 -28.727)"/>
    </g>
  </symbol>
</svg>