<svg width="93" height="70" viewBox="0 0 93 70" fill="none" xmlns="http://www.w3.org/2000/svg">
  <g id="icon" data-name="Group 73">
	<path d="M5.12312 25.892C4.48074 25.892 3.93803 26.4347 3.93803 27.0771V45.2983C3.93803 45.9534 4.46965 46.4863 5.12312 46.4863H5.306C5.94839 46.4863 6.4911 45.9423 6.4911 45.2983V27.0809C6.49023 26.4365 5.94614 25.892 5.30296 25.892H5.12312ZM5.12312 22.892H5.30296C7.60543 22.892 9.48804 24.7776 9.4911 27.0769V45.2983C9.4911 47.6006 7.6114 49.4863 5.306 49.4863H5.12312C2.81773 49.4863 0.938034 47.6068 0.938034 45.2983V27.0771C0.938034 24.7776 2.81773 22.892 5.12312 22.892Z" fill="white"/>
	<path d="M38.1184 67.2043C38.7735 67.2043 39.3064 66.67 39.3064 66.0133V56.1711C39.3064 54.5143 40.6496 53.1711 42.3064 53.1711H46.4195C46.8766 53.1711 47.2628 52.7863 47.2628 52.3309V26.56H14.494V52.3309C14.494 52.7863 14.8816 53.1711 15.3403 53.1711H19.4505C21.1073 53.1711 22.4505 54.5143 22.4505 56.1711V66.0133C22.4505 66.6589 22.9932 67.2043 23.6356 67.2043H23.8154C24.4722 67.2043 25.0065 66.67 25.0065 66.0133V56.1711C25.0065 54.5143 26.3496 53.1711 28.0064 53.1711H33.7505C35.4073 53.1711 36.7505 54.5143 36.7505 56.1711V66.0133C36.7505 66.6589 37.2959 67.2043 37.9415 67.2043H38.1184ZM38.1184 70.2043H37.9415C35.6421 70.2043 33.7505 68.3246 33.7505 66.0133V56.1711H28.0064V66.0133C28.0064 68.3217 26.1238 70.2043 23.8154 70.2043H23.6356C21.3361 70.2043 19.4505 68.3246 19.4505 66.0133V56.1711H15.3403C13.2238 56.1711 11.494 54.4474 11.494 52.3309V23.56H50.2628V52.3309C50.2628 54.4474 48.533 56.1711 46.4195 56.1711H42.3064V66.0133C42.3064 68.3217 40.4267 70.2043 38.1184 70.2043Z" fill="white"/>
	<path d="M30.8813 6.90666C28.3543 6.90666 25.9191 7.3783 23.6433 8.30847C23.4565 8.38482 23.2658 8.44105 23.0739 8.478C22.9119 8.60442 22.736 8.71489 22.5484 8.80684C20.0655 10.0236 17.9931 11.7661 16.5551 13.846C15.4956 15.3785 14.8054 17.0706 14.5177 18.8189H47.2447C46.9569 17.0711 46.2665 15.3789 45.2066 13.8462C43.7683 11.7664 41.696 10.0237 39.2138 8.80657C39.0267 8.71485 38.8514 8.60472 38.6898 8.47872C38.4957 8.44164 38.3029 8.38486 38.1142 8.30753C35.8453 7.37798 33.4118 6.90666 30.8813 6.90666ZM18.5469 0.000259401C18.7749 0.000259401 18.9986 0.11105 19.1297 0.318073L22.5082 5.53147C25.0534 4.49121 27.8834 3.90666 30.8813 3.90666C33.8764 3.90666 36.7124 4.49121 39.2515 5.53147L42.636 0.318073C42.7672 0.111029 42.9898 0.000244142 43.2161 0.000259401C43.347 0.00026703 43.4791 0.0373058 43.5955 0.114183C43.9162 0.321123 44.0092 0.755714 43.7993 1.07356L40.5346 6.11296C46.4224 8.99999 50.3977 14.4412 50.3975 20.6828C50.3975 21.0665 50.3765 21.4442 50.3436 21.8189H11.422C11.3891 21.4442 11.365 21.0665 11.365 20.6828C11.365 14.4412 15.3372 8.99999 21.2281 6.11296L17.9604 1.07356C17.7506 0.755714 17.8435 0.320993 18.1643 0.114183C18.2818 0.0372925 18.4151 0.000259401 18.5469 0.000259401Z" fill="white"/>
	<path d="M55.1152 68.7055C51.2986 68.7055 48.2534 64.7585 45.2129 60.3613C41.9448 55.6425 39.5248 49.5271 38.5726 43.5823C38.062 40.3945 37.9795 37.3511 38.3273 34.5365C38.6983 31.5342 39.5563 28.8495 40.8775 26.5569C43.7374 21.5827 48.9088 18.4436 54.3742 18.3632L54.3778 18.3631L54.3813 18.363C54.4314 18.3621 54.4822 18.3615 54.5338 18.3615C56.8245 18.3615 59.1167 19.2712 61.139 20.0739C62.8891 20.7682 64.3989 21.3672 65.7539 21.3672C66.9902 21.3672 68.492 20.775 70.2308 20.0894C72.4255 19.224 75.1569 18.1469 77.8775 18.1469C78.2136 18.1469 78.5468 18.1632 78.8679 18.1952L78.9101 18.1994L78.9524 18.2012C81.161 18.2962 86.5278 19.0512 90.2883 23.8865C88.1095 25.453 83.149 29.842 83.2228 37.2762C83.3022 46.4073 89.8867 50.533 92.2796 51.7315C91.6568 53.5543 90.2888 56.997 87.8687 60.5337C86.5053 62.5249 85.0958 64.5835 83.4427 66.1373C81.6828 67.7915 79.9684 68.5786 78.0473 68.6144C77.9835 68.6156 77.9209 68.6161 77.8587 68.6161C75.9017 68.6161 74.5414 68.0276 73.1012 67.4045L73.0882 67.3989C71.4336 66.6829 69.5591 65.8717 66.6649 65.8717C63.6419 65.8717 61.683 66.7066 59.9548 67.4431C58.5238 68.0525 57.1736 68.6275 55.3148 68.7016C55.2487 68.7042 55.1832 68.7055 55.1152 68.7055Z" fill="white"/>
	<path d="M77.8775 19.6469C75.4419 19.6469 72.9657 20.6233 70.781 21.4848C68.8999 22.2266 67.2754 22.8672 65.7539 22.8672C64.1122 22.8672 62.4789 22.2192 60.5856 21.4681C58.5956 20.6782 56.5378 19.8615 54.5338 19.8615C54.4922 19.8615 54.4512 19.8619 54.4109 19.8627C54.406 19.8628 54.4011 19.8629 54.3963 19.863C49.457 19.9356 44.7755 22.7866 42.1771 27.3058C40.9567 29.4237 40.1623 31.9183 39.816 34.7205C39.4855 37.3949 39.5655 40.2967 40.0538 43.3451C40.9717 49.076 43.3013 54.9665 46.4467 59.5082C48.15 61.9716 49.593 63.895 51.0989 65.2749C52.5362 66.592 53.8124 67.2055 55.1152 67.2055C55.1633 67.2055 55.2095 67.2046 55.255 67.2028C56.839 67.1396 58.0099 66.641 59.3667 66.0632C61.135 65.3096 63.3356 64.3717 66.6649 64.3717C69.8697 64.3717 71.9842 65.2867 73.6838 66.0222L73.6968 66.0278C75.1022 66.6359 76.2123 67.1161 77.8587 67.1161C77.9117 67.1161 77.965 67.1156 78.0193 67.1146C79.546 67.0862 80.9429 66.4283 82.4154 65.0443C83.95 63.6019 85.3128 61.6115 86.6307 59.6866C88.5028 56.9509 89.7174 54.2764 90.4299 52.4289C89.3577 51.7878 88.0281 50.8455 86.73 49.5361C83.4956 46.2736 81.7642 42.038 81.7229 37.2911C81.6548 30.4309 85.4939 25.9485 88.1248 23.6869C84.846 20.3429 80.6958 19.7776 78.888 19.6999C78.8315 19.6974 78.7752 19.6934 78.719 19.6878C78.4472 19.6607 78.1641 19.6469 77.8775 19.6469ZM77.8775 16.6469C78.2623 16.6469 78.6456 16.6656 79.0169 16.7026C81.5755 16.8127 87.9308 17.7272 92.0773 23.7952C92.1647 23.9232 92.197 24.0816 92.1661 24.2337C92.1353 24.3861 92.0443 24.5194 91.9138 24.6034L91.8577 24.6384C90.6529 25.3837 84.6457 29.4959 84.7228 37.2613C84.8059 46.8193 92.7107 50.3261 93.6119 50.6946C93.6195 50.6979 93.6466 50.7092 93.654 50.7126C93.9212 50.8353 94.0529 51.1396 93.9597 51.4183L93.9399 51.4807C93.4503 53.0492 91.9992 57.1535 89.1066 61.3808C86.3345 65.4295 83.1925 70.0188 78.0752 70.1141C78.0022 70.1155 77.9302 70.1161 77.8587 70.1161C75.5847 70.1161 74.0163 69.4348 72.4926 68.7756C70.8979 68.0855 69.2489 67.3717 66.6649 67.3717C63.9488 67.3717 62.2172 68.1095 60.5428 68.823C59.0515 69.4581 57.5091 70.1153 55.3746 70.2004C55.2867 70.2039 55.2008 70.2055 55.1152 70.2055C50.5721 70.2055 47.2553 65.9524 43.9791 61.2144C37.4157 51.7374 33.6426 36.1074 39.5778 25.8079C42.6991 20.3793 48.3606 16.9515 54.3522 16.8633C54.4118 16.8621 54.4723 16.8615 54.5338 16.8615C57.1106 16.8615 59.5448 17.8273 61.6924 18.6797C63.2983 19.3168 64.6852 19.8672 65.7539 19.8672C66.705 19.8672 68.084 19.3235 69.6805 18.6939C71.9934 17.782 74.8722 16.6469 77.8775 16.6469Z" fill="white"/>
	<path d="M66.0558 15.5905C65.9845 14.0909 66.2659 12.5117 66.8956 10.8844C67.5156 9.28206 68.4673 7.69265 69.5754 6.40896L69.5781 6.40587L69.5807 6.40276C70.715 5.07422 72.2953 3.85226 74.0307 2.96198C75.424 2.24717 76.8688 1.7703 78.1882 1.58253C78.275 4.78367 77.0209 8.24664 74.7392 11.0146C72.4417 13.7926 69.1271 15.5361 66.0558 15.5905Z" fill="white"/>
	<path d="M76.5661 3.51166C75.9544 3.7172 75.3311 3.98073 74.7154 4.2966C73.1501 5.09964 71.7317 6.19351 70.7215 7.37671C70.718 7.38085 70.7145 7.38498 70.7109 7.3891C69.3974 8.91081 68.0066 11.3301 67.6395 13.8812C69.7891 13.3742 71.9909 11.9841 73.5818 10.0605C74.6944 8.71073 75.5629 7.1341 76.0933 5.50104C76.3086 4.83808 76.4667 4.17069 76.5661 3.51166ZM79.0447 0C79.3333 7.62939e-06 79.5854 0.219561 79.6177 0.512602C80.0385 4.3488 78.6475 8.63155 75.8967 11.9687C73.2829 15.1291 69.4558 17.0919 65.908 17.0919C65.6589 17.0916 65.4089 17.082 65.1641 17.0629C64.8931 17.0419 64.674 16.8341 64.6383 16.5647C64.0693 12.2604 66.2291 7.99003 68.44 5.4288C71.0414 2.38167 75.3939 0.148222 79.0223 0.000442505C79.0298 0.000146866 79.0372 0 79.0447 0Z" fill="white"/>
  </g>
</svg>