<svg xmlns="http://www.w3.org/2000/svg">
  <symbol id="icon" viewBox="0 0 68 68">
    <g id="abc" transform="translate(0 -0.82)">
      <g id="Group_13" data-name="Group 13" transform="translate(48.282 49.023)">
        <g id="Group_12" data-name="Group 12">
          <path id="Path_70" data-name="Path 70" d="M372.907,360.826a1.006,1.006,0,0,0-1.1.218l-11,11a1.007,1.007,0,0,0,.712,1.718h11a1.006,1.006,0,0,0,1.006-1.006v-11A1.007,1.007,0,0,0,372.907,360.826Zm-8.954,10.922,7.563-7.563v7.563Z" transform="translate(-360.517 -360.749)"/>
        </g>
      </g>
      <g id="Group_15" data-name="Group 15" transform="translate(0 0.82)">
        <g id="Group_14" data-name="Group 14" transform="translate(0 0)">
          <path id="Path_71" data-name="Path 71" d="M67.948,32.968a1.006,1.006,0,0,0-1.1.218L63.837,36.2V15.706A1.006,1.006,0,0,0,62.83,14.7H55.1L57.9,11.892h0l2.7-2.7a3.069,3.069,0,0,0,0-4.34L57.483,1.719a3.069,3.069,0,0,0-4.34,0L50.437,4.425l-3.27,3.27-7,7H8.922V4.743A1.006,1.006,0,0,0,7.916,3.736,7.925,7.925,0,0,0,0,11.652V54.4a1.009,1.009,0,0,0,.024.216,7.623,7.623,0,0,0,7.6,7.044H38.378l-5.792,5.792a1.006,1.006,0,0,0,.712,1.718H67.563a1.006,1.006,0,0,0,1.006-1.006V33.9A1.007,1.007,0,0,0,67.948,32.968ZM54.566,3.142a1.057,1.057,0,0,1,1.493,0L59.187,6.27a1.057,1.057,0,0,1,0,1.493L57.193,9.758,52.572,5.137ZM51.149,6.56l4.621,4.621-1.847,1.847L49.3,8.407ZM66.557,45.207H64.7a1.006,1.006,0,1,0,0,2.013h1.857v3.033H64.7a1.006,1.006,0,1,0,0,2.013h1.857V55.3H64.7a1.006,1.006,0,1,0,0,2.013h1.857v3.033H64.7a1.006,1.006,0,1,0,0,2.013h1.857v4.8H35.727L45.893,56.991a1.007,1.007,0,0,0-1.423-1.423l-4.079,4.079H7.624a5.579,5.579,0,0,1-5.606-5.43q.009-.287.044-.568v0q.017-.134.04-.266l.005-.03q.021-.118.047-.235l.015-.065q.023-.1.049-.2c.01-.035.02-.07.03-.106.015-.051.03-.1.046-.153s.033-.1.051-.15.024-.07.037-.1c.025-.066.05-.131.077-.2l.023-.056c.034-.08.07-.16.108-.238l0-.01a5.925,5.925,0,0,1,4.118-3.22l.015,0c.083-.017.167-.032.252-.045l.042-.007c.076-.012.154-.021.231-.029l.065-.008c.075-.007.15-.012.225-.017l.072-.005q.148-.007.3-.007a1.006,1.006,0,0,0,1.006-1.006v-7.3a1.006,1.006,0,1,0-2.013,0v6.354a7.861,7.861,0,0,0-4.521,2.188c-.131.128-.255.261-.376.4V11.652a5.913,5.913,0,0,1,4.9-5.817V36.166h0a1.006,1.006,0,0,0,2.013,0h0V16.712H38.15l-5.564,5.564A1.006,1.006,0,1,0,34.009,23.7l7.282-7.282h0L47.879,9.83,52.5,14.451l-.542.542h0L31.663,35.288l-4.621-4.621,4-4a1.006,1.006,0,1,0-1.423-1.423l-4.712,4.712a1.01,1.01,0,0,0-.071.079l-.021.028c-.014.019-.028.038-.041.058l-.021.035c-.011.019-.022.038-.032.057s-.012.025-.018.038-.017.04-.025.06l-.009.021-1.961,5.555-1.337,3.787a1.018,1.018,0,0,0-.04.153H17.985a1.006,1.006,0,0,0,0,2.013H45.856a1.006,1.006,0,1,0,0-2.013h-20L32,37.66l.015-.006c.024-.009.047-.019.07-.029l.027-.013c.024-.012.048-.025.071-.04l.023-.013c.024-.016.048-.033.071-.05l.017-.013a1.009,1.009,0,0,0,.081-.073l20.711-20.71h8.739v21.5l-14.4,14.4a1.006,1.006,0,0,0,0,1.423,1.027,1.027,0,0,0,.076.069,1.006,1.006,0,0,0,1.347-.069h0L66.557,36.327ZM29.822,36.293l-2.883,1.018L25.018,35.39l1.018-2.883Z" transform="translate(0 -0.82)"/>
        </g>
      </g>
    </g>
  </symbol>
</svg>