<svg xmlns="http://www.w3.org/2000/svg">
  <symbol id="icon" viewBox="0 0 93 70">
    <g id="abc" data-name="Group 73" transform="translate(-913.037 -1849.371)">
      <g id="_001-android-logo" data-name="001-android-logo" transform="translate(913.037 1849.371)">
        <g id="Group_72" data-name="Group 72" transform="translate(0 0)">
          <g id="Group_71" data-name="Group 71" transform="translate(0 0)">
            <g id="Path_83" data-name="Path 83" transform="translate(-37.134 -141.823)" fill="none" stroke-linejoin="round">
              <path d="M41.5,164.715h-.18a4.2,4.2,0,0,0-4.185,4.185v18.221a4.193,4.193,0,0,0,4.185,4.188H41.5a4.2,4.2,0,0,0,4.185-4.188V168.9A4.2,4.2,0,0,0,41.5,164.715Z" stroke="none"/>
              <path d="M 41.31908416748047 167.7150115966797 C 40.67670440673828 167.7150115966797 40.13400268554688 168.2577056884766 40.13400268554688 168.9000854492188 L 40.13400268554688 187.1213073730469 C 40.13400268554688 187.7763671875 40.66562271118164 188.3092956542969 41.31908416748047 188.3092956542969 L 41.50197219848633 188.3092956542969 C 42.14436340332031 188.3092956542969 42.68706512451172 187.7652587890625 42.68706512451172 187.1213073730469 L 42.68706512451172 168.9039306640625 C 42.68620300292969 168.2594604492188 42.14210510253906 167.7150115966797 41.49892425537109 167.7150115966797 L 41.31908416748047 167.7150115966797 M 41.31908416748047 164.7150115966797 L 41.49892425537109 164.7150115966797 C 43.80139541625977 164.7150115966797 45.68400573730469 166.6006469726563 45.68706512451172 168.8999328613281 L 45.68706512451172 187.1213073730469 C 45.68706512451172 189.4236450195313 43.80736541748047 191.3092956542969 41.50197219848633 191.3092956542969 L 41.31908416748047 191.3092956542969 C 39.01369476318359 191.3092956542969 37.13400268554688 189.4297485351563 37.13400268554688 187.1213073730469 L 37.13400268554688 168.9000854492188 C 37.13400268554688 166.6006469726563 39.01369476318359 164.7150115966797 41.31908416748047 164.7150115966797 Z" stroke="none" fill="#0f7cea"/>
            </g>
            <g id="Path_84" data-name="Path 84" transform="translate(-102.529 -145.965)" fill="none" stroke-linejoin="round">
              <path d="M113.085,198.3a3.851,3.851,0,0,0,3.846,3.84h4.11v9.842a4.2,4.2,0,0,0,4.185,4.191h.18a4.2,4.2,0,0,0,4.191-4.191v-9.842h5.744v9.842a4.2,4.2,0,0,0,4.191,4.191h.177a4.2,4.2,0,0,0,4.188-4.191v-9.842h4.113a3.85,3.85,0,0,0,3.843-3.84V169.525H113.085Z" stroke="none"/>
              <path d="M 139.7094116210938 213.1693420410156 C 140.3644714355469 213.1693420410156 140.8973999023438 212.6350250244141 140.8973999023438 211.978271484375 L 140.8973999023438 202.1361389160156 C 140.8973999023438 200.4792938232422 142.2405395507813 199.1361389160156 143.8973999023438 199.1361389160156 L 148.010498046875 199.1361389160156 C 148.4676055908203 199.1361389160156 148.8537902832031 198.7513427734375 148.8537902832031 198.2958679199219 L 148.8537902832031 172.5249938964844 L 116.0850143432617 172.5249938964844 L 116.0850143432617 198.2958679199219 C 116.0850143432617 198.7513427734375 116.4725570678711 199.1361389160156 116.931266784668 199.1361389160156 L 121.0414352416992 199.1361389160156 C 122.6982879638672 199.1361389160156 124.0414352416992 200.4792938232422 124.0414352416992 202.1361389160156 L 124.0414352416992 211.978271484375 C 124.0414352416992 212.6239013671875 124.5841445922852 213.1693420410156 125.2265396118164 213.1693420410156 L 125.406364440918 213.1693420410156 C 126.063117980957 213.1693420410156 126.5974197387695 212.6350250244141 126.5974197387695 211.978271484375 L 126.5974197387695 202.1361389160156 C 126.5974197387695 200.4792938232422 127.9405670166016 199.1361389160156 129.597412109375 199.1361389160156 L 135.3414306640625 199.1361389160156 C 136.9982757568359 199.1361389160156 138.3414306640625 200.4792938232422 138.3414306640625 202.1361389160156 L 138.3414306640625 211.978271484375 C 138.3414306640625 212.6239013671875 138.8868560791016 213.1693420410156 139.532470703125 213.1693420410156 L 139.7094116210938 213.1693420410156 M 139.7094116210938 216.1693420410156 L 139.532470703125 216.1693420410156 C 137.2330627441406 216.1693420410156 135.3414306640625 214.2896118164063 135.3414306640625 211.978271484375 L 135.3414306640625 202.1361389160156 L 129.597412109375 202.1361389160156 L 129.597412109375 211.978271484375 C 129.597412109375 214.2866821289063 127.7148056030273 216.1693420410156 125.406364440918 216.1693420410156 L 125.2265396118164 216.1693420410156 C 122.9271087646484 216.1693420410156 121.0414352416992 214.2896118164063 121.0414352416992 211.978271484375 L 121.0414352416992 202.1361389160156 L 116.931266784668 202.1361389160156 C 114.8147583007813 202.1361389160156 113.0850143432617 200.4123840332031 113.0850143432617 198.2958679199219 L 113.0850143432617 169.5249938964844 L 151.8537902832031 169.5249938964844 L 151.8537902832031 198.2958679199219 C 151.8537902832031 200.4123840332031 150.1239318847656 202.1361389160156 148.010498046875 202.1361389160156 L 143.8973999023438 202.1361389160156 L 143.8973999023438 211.978271484375 C 143.8973999023438 214.2866821289063 142.0176696777344 216.1693420410156 139.7094116210938 216.1693420410156 Z" stroke="none" fill="#0f7cea"/>
            </g>
            <g id="Path_85" data-name="Path 85" transform="translate(-101.73 0)" fill="none" stroke-linejoin="round">
              <path d="M141.327,6.113l3.265-5.039a.693.693,0,0,0-.2-.959.688.688,0,0,0-.959.2l-3.385,5.213a22.379,22.379,0,0,0-16.743,0L119.922.318a.7.7,0,0,0-1.169.755l3.268,5.039c-5.891,2.887-9.863,8.328-9.863,14.57,0,.384.024.761.057,1.136h38.922c.033-.375.054-.752.054-1.136C151.19,14.441,147.214,9,141.327,6.113Z" stroke="none"/>
              <path d="M 131.6732940673828 6.90666389465332 C 129.1462554931641 6.90666389465332 126.7110290527344 7.378303527832031 124.4352264404297 8.308473587036133 C 124.2484436035156 8.384815216064453 124.0578002929688 8.441051483154297 123.8658142089844 8.477995872497559 C 123.7038269042969 8.604416847229004 123.5279388427734 8.71489143371582 123.3403167724609 8.806843757629395 C 120.8574829101563 10.02363395690918 118.7850646972656 11.76614379882813 117.3471069335938 13.8459939956665 C 116.2875518798828 15.37848567962646 115.5973815917969 17.07064819335938 115.3097076416016 18.81891441345215 L 148.0366821289063 18.81891441345215 C 147.7488861083984 17.07107734680176 147.0584411621094 15.37893199920654 145.99853515625 13.84623336791992 C 144.5602722167969 11.76639366149902 142.4880065917969 10.02370357513428 140.0057678222656 8.806573867797852 C 139.8186950683594 8.714847564697266 139.6433258056641 8.604722023010254 139.4817504882813 8.47872257232666 C 139.2876586914063 8.441638946533203 139.0949096679688 8.384864807128906 138.9061584472656 8.307534217834473 C 136.6372375488281 7.377984046936035 134.2037658691406 6.90666389465332 131.6732940673828 6.90666389465332 M 119.3388519287109 0.0002593994140625 C 119.5668182373047 0.0002593994140625 119.7905883789063 0.1110496520996094 119.9216156005859 0.3180732727050781 L 123.3002014160156 5.531473159790039 C 125.8453521728516 4.491212844848633 128.6753845214844 3.90666389465332 131.6732940673828 3.90666389465332 C 134.6683197021484 3.90666389465332 137.5043334960938 4.491212844848633 140.0434722900391 5.531473159790039 L 143.4280090332031 0.3180732727050781 C 143.5591735839844 0.1110286712646484 143.7817230224609 0.000244140625 144.008056640625 0.0002593994140625 C 144.138916015625 0.00026702880859375 144.2710571289063 0.03730583190917969 144.3874359130859 0.1141834259033203 C 144.7081756591797 0.3211231231689453 144.8011627197266 0.7557144165039063 144.59130859375 1.073564529418945 L 141.3265380859375 6.112963676452637 C 147.2143859863281 8.999993324279785 151.1896362304688 14.44118309020996 151.1894683837891 20.68275451660156 C 151.1894683837891 21.06648445129395 151.1685028076172 21.44422340393066 151.1355590820313 21.81891441345215 L 112.2139892578125 21.81891441345215 C 112.1810455322266 21.44422340393066 112.1569976806641 21.06648445129395 112.1569976806641 20.68275451660156 C 112.1569976806641 14.44118309020996 116.1291809082031 8.999993324279785 122.0200805664063 6.112963676452637 L 118.7523803710938 1.073564529418945 C 118.5425262451172 0.7557144165039063 118.635498046875 0.3209934234619141 118.9562835693359 0.1141834259033203 C 119.0738067626953 0.03729248046875 119.2070159912109 0.0002593994140625 119.3388519287109 0.0002593994140625 Z" stroke="none" fill="#0f7cea"/>
            </g>
            <g id="Path_86" data-name="Path 86" transform="translate(-355.139 -141.823)" fill="none" stroke-linejoin="round">
              <path d="M410.834,164.715h-.174a4.2,4.2,0,0,0-4.191,4.185v18.221a4.2,4.2,0,0,0,4.191,4.188h.177a4.2,4.2,0,0,0,4.185-4.188V168.9A4.2,4.2,0,0,0,410.834,164.715Z" stroke="none"/>
              <path d="M 410.6601257324219 167.7150115966797 C 410.0144958496094 167.7150115966797 409.4690246582031 168.2577056884766 409.4690246582031 168.9000854492188 L 409.4690246582031 187.1213073730469 C 409.4690246582031 187.7652587890625 410.0144958496094 188.3092956542969 410.6601257324219 188.3092956542969 L 410.8370056152344 188.3092956542969 C 411.4794006347656 188.3092956542969 412.0221252441406 187.7652587890625 412.0221252441406 187.1213073730469 L 412.0221252441406 168.8999328613281 C 412.0221252441406 168.2576293945313 411.4779968261719 167.7150115966797 410.8339538574219 167.7150115966797 L 410.6601257324219 167.7150115966797 M 410.6601257324219 164.7150115966797 L 410.8339538574219 164.7150115966797 C 413.1393127441406 164.7150115966797 415.0221252441406 166.6006469726563 415.0221252441406 168.8999328613281 L 415.0221252441406 187.1213073730469 C 415.0221252441406 189.4236450195313 413.1453552246094 191.3092956542969 410.8370056152344 191.3092956542969 L 410.6601257324219 191.3092956542969 C 408.3577575683594 191.3092956542969 406.4690246582031 189.4297485351563 406.4690246582031 187.1213073730469 L 406.4690246582031 168.9000854492188 C 406.4690246582031 166.6006469726563 408.3547058105469 164.7150115966797 410.6601257324219 164.7150115966797 Z" stroke="none" fill="#0f7cea"/>
            </g>
          </g>
        </g>
      </g>
      <g id="XMLID_228_" transform="translate(948.716 1849.371)">
        <g id="XMLID_229_" transform="translate(-27.875 -55.673)" fill="#fff" stroke-linejoin="round">
          <path d="M 46.37326431274414 124.3785705566406 C 42.55665588378906 124.3785705566406 39.51142501831055 120.4315795898438 36.47094345092773 116.0343475341797 C 33.20290374755859 111.3155212402344 30.7828540802002 105.2001571655273 29.8306941986084 99.25540924072266 C 29.32011413574219 96.06759643554688 29.23758506774902 93.02414703369141 29.58539581298828 90.20958709716797 C 29.95639419555664 87.20729064941406 30.81439590454102 84.52253723144531 32.13554382324219 82.22991943359375 C 34.9954833984375 77.25579071044922 40.16685485839844 74.11663818359375 45.63229370117188 74.03621673583984 L 45.63584518432617 74.03617095947266 L 45.639404296875 74.03610229492188 C 45.68944549560547 74.03511810302734 45.7402458190918 74.03453063964844 45.79183578491211 74.03453063964844 C 48.08257675170898 74.03453063964844 50.37473678588867 74.94428253173828 52.39707565307617 75.74692535400391 C 54.14714431762695 76.44126129150391 55.65692520141602 77.04023742675781 57.01195526123047 77.04023742675781 C 58.24831390380859 77.04023742675781 59.75001525878906 76.44808959960938 61.48883438110352 75.76243591308594 C 63.68355560302734 74.89704132080078 66.41497802734375 73.82000732421875 69.13552856445313 73.82000732421875 C 69.47163391113281 73.82000732421875 69.80488586425781 73.83625030517578 70.12600708007813 73.8682861328125 L 70.16815185546875 73.87249755859375 L 70.21046447753906 73.87430572509766 C 72.41905212402344 73.96929931640625 77.78582763671875 74.72429656982422 81.54634857177734 79.55959320068359 C 79.36759948730469 81.12606811523438 74.40709686279297 85.51511383056641 74.48091125488281 92.94922637939453 C 74.560302734375 102.0803604125977 81.14479827880859 106.2060623168945 83.53762054443359 107.4045715332031 C 82.91487884521484 109.2273559570313 81.54682159423828 112.6700897216797 79.12671661376953 116.206787109375 C 77.76338195800781 118.1979675292969 76.35390472412109 120.2565460205078 74.70079803466797 121.8103485107422 C 72.94087219238281 123.4645462036133 71.22643280029297 124.2516555786133 69.30533599853516 124.2874298095703 C 69.24160766601563 124.2886276245117 69.17899322509766 124.2892074584961 69.11672210693359 124.2892074584961 C 67.15978240966797 124.2892074584961 65.79945373535156 123.7006759643555 64.3592529296875 123.0775909423828 L 64.34630584716797 123.0719909667969 C 62.69169616699219 122.3559722900391 60.81716537475586 121.5447998046875 57.92300415039063 121.5447998046875 C 54.89995574951172 121.5447998046875 52.94109344482422 122.3796310424805 51.21282577514648 123.1161880493164 C 49.78190612792969 123.7255325317383 48.43165588378906 124.3005218505859 46.57288360595703 124.3746795654297 C 46.50680541992188 124.3772888183594 46.4412956237793 124.3785705566406 46.37326431274414 124.3785705566406 Z" stroke="none"/>
          <path d="M 69.13552856445313 75.32001495361328 C 66.69998931884766 75.32001495361328 64.22377777099609 76.29640960693359 62.03908920288086 77.15786743164063 C 60.15798950195313 77.89963531494141 58.53342437744141 78.54022979736328 57.01195907592773 78.54022979736328 C 55.37023544311523 78.54022979736328 53.73696899414063 77.89225769042969 51.84371185302734 77.14113616943359 C 49.85364532470703 76.35128021240234 47.79582214355469 75.53453063964844 45.79183197021484 75.53453063964844 C 45.75023651123047 75.53453063964844 45.70926666259766 75.53501129150391 45.66891479492188 75.53579711914063 C 45.66407012939453 75.53589630126953 45.65921020507813 75.53598022460938 45.65435791015625 75.53605651855469 C 40.71511077880859 75.60871887207031 36.0335693359375 78.45966339111328 33.43518829345703 82.97885894775391 C 32.21473693847656 85.09674072265625 31.42033386230469 87.59140014648438 31.07406616210938 90.39354705810547 C 30.74356842041016 93.06800842285156 30.82355499267578 95.96975708007813 31.31182098388672 99.01818084716797 C 32.22972106933594 104.7490463256836 34.55937957763672 110.6395874023438 37.70472717285156 115.1812438964844 C 39.40806579589844 117.6446533203125 40.85106658935547 119.5680541992188 42.35693359375 120.9479751586914 C 43.79428100585938 122.2651138305664 45.07050323486328 122.8785629272461 46.37326812744141 122.8785629272461 C 46.42139053344727 122.8785629272461 46.46757888793945 122.8776702880859 46.51309204101563 122.8758773803711 C 48.0970344543457 122.8126754760742 49.2679443359375 122.3140563964844 50.6247444152832 121.7362670898438 C 52.39302444458008 120.982666015625 54.59371185302734 120.0447998046875 57.92301177978516 120.0447998046875 C 61.12779235839844 120.0447998046875 63.24224472045898 120.9598007202148 64.94190979003906 121.6952972412109 L 64.95481872558594 121.7008895874023 C 66.36026000976563 122.3089370727539 67.47034454345703 122.7892074584961 69.11671447753906 122.7892074584961 C 69.16973876953125 122.7892074584961 69.22303771972656 122.7886962890625 69.27740478515625 122.7876892089844 C 70.80410003662109 122.7592544555664 72.20098876953125 122.1014022827148 73.67347717285156 120.7173538208008 C 75.20809936523438 119.2749328613281 76.57087707519531 117.2845687866211 77.88880157470703 115.3597030639648 C 79.76083374023438 112.6239395141602 80.9754638671875 109.9495010375977 81.68798065185547 108.1019897460938 C 80.61581420898438 107.4608459472656 79.28620910644531 106.5185928344727 77.98811340332031 105.2091979980469 C 74.75370788574219 101.9466247558594 73.02226257324219 97.71106719970703 72.98098754882813 92.96413421630859 C 72.91287231445313 86.10396575927734 76.751953125 81.62153625488281 79.38290405273438 79.35993194580078 C 76.10407257080078 76.01600646972656 71.95384216308594 75.45066833496094 70.14602661132813 75.37293243408203 C 70.089599609375 75.37049865722656 70.03325653076172 75.36648559570313 69.97706604003906 75.36087799072266 C 69.70527648925781 75.33375549316406 69.42214965820313 75.32001495361328 69.13552856445313 75.32001495361328 M 69.13552856445313 72.32001495361328 C 69.5203857421875 72.32001495361328 69.90363311767578 72.33865356445313 70.27491760253906 72.37570190429688 C 72.83358764648438 72.48573303222656 79.18886566162109 73.40023040771484 83.3353271484375 79.46829223632813 C 83.42277526855469 79.59625244140625 83.45502471923828 79.75462341308594 83.42415618896484 79.90676879882813 C 83.39332580566406 80.05915832519531 83.30239868164063 80.19243621826172 83.17189025878906 80.27644348144531 L 83.11572265625 80.31143188476563 C 81.91098022460938 81.05677032470703 75.90373229980469 85.1689453125 75.98085021972656 92.93434143066406 C 76.06394958496094 102.4923858642578 83.96876525878906 105.9991912841797 84.86993408203125 106.3677139282227 C 84.87753295898438 106.3709411621094 84.90470123291016 106.3822250366211 84.91205596923828 106.3856658935547 C 85.17930603027344 106.5083465576172 85.31096649169922 106.8126525878906 85.21773529052734 107.0914001464844 L 85.19794464111328 107.1537780761719 C 84.70835876464844 108.7222442626953 83.25729370117188 112.8265991210938 80.36463928222656 117.0538787841797 C 77.59257507324219 121.1025314331055 74.45060729980469 125.6918792724609 69.333251953125 125.7871704101563 C 69.26025390625 125.7885360717773 69.18829345703125 125.7892074584961 69.11671447753906 125.7892074584961 C 66.84278106689453 125.7892074584961 65.27440643310547 125.1078796386719 63.75070190429688 124.4486694335938 C 62.15601348876953 123.7585906982422 60.50701141357422 123.0447998046875 57.92301177978516 123.0447998046875 C 55.20689010620117 123.0447998046875 53.47524642944336 123.7825317382813 51.80091094970703 124.4960861206055 C 50.30957794189453 125.1311645507813 48.76713562011719 125.788330078125 46.6326789855957 125.8734893798828 C 46.54475784301758 125.876953125 46.45890045166016 125.8785629272461 46.37326812744141 125.8785629272461 C 41.8302001953125 125.8785629272461 38.51332092285156 121.6255035400391 35.23716735839844 116.8874588012695 C 28.67381286621094 107.4104309082031 24.90070343017578 91.78044128417969 30.83589172363281 81.48097991943359 C 33.95713806152344 76.05239105224609 39.61863708496094 72.62453460693359 45.61022186279297 72.536376953125 C 45.66984558105469 72.53520965576172 45.73037719726563 72.53453063964844 45.79183197021484 72.53453063964844 C 48.36869049072266 72.53453063964844 50.8028564453125 73.5003662109375 52.95042419433594 74.35272979736328 C 54.55638885498047 74.98987579345703 55.94322204589844 75.54022979736328 57.01195907592773 75.54022979736328 C 57.96305847167969 75.54022979736328 59.34206771850586 74.99655914306641 60.93859100341797 74.36701202392578 C 63.25143432617188 73.45502471923828 66.13030242919922 72.32001495361328 69.13552856445313 72.32001495361328 Z" stroke="none" fill="#0f7cea"/>
        </g>
        <g id="XMLID_230_" transform="translate(-121.281 0)" fill="#fff" stroke-linejoin="round">
          <path d="M 150.7198638916016 15.59062480926514 C 150.6485900878906 14.0910062789917 150.9299926757813 12.51174068450928 151.5596618652344 10.88447856903076 C 152.1796875 9.282138824462891 153.1314086914063 7.692728519439697 154.239501953125 6.409038543701172 L 154.2421569824219 6.405948638916016 L 154.2448120117188 6.402838706970215 C 155.3790588378906 5.07429838180542 156.9594116210938 3.852338552474976 158.6947937011719 2.962058544158936 C 160.0881195068359 2.247251510620117 161.5328521728516 1.770376086235046 162.8522491455078 1.582613348960876 C 162.9390411376953 4.783747673034668 161.6849517822266 8.246721267700195 159.4032592773438 11.01468849182129 C 157.1057891845703 13.79270839691162 153.7911376953125 15.5361967086792 150.7198638916016 15.59062480926514 Z" stroke="none"/>
          <path d="M 161.2301635742188 3.511734008789063 C 160.6184692382813 3.717278480529785 159.9951934814453 3.980801582336426 159.3794708251953 4.29667854309082 C 157.8141479492188 5.09971809387207 156.395751953125 6.193588256835938 155.3856048583984 7.376788139343262 C 155.382080078125 7.380928993225098 155.3785247802734 7.385058403015137 155.3749694824219 7.389178276062012 C 154.0614318847656 8.910883903503418 152.6706848144531 11.33016204833984 152.3035583496094 13.88125514984131 C 154.4532012939453 13.37427616119385 156.6549530029297 11.98419189453125 158.2458190917969 10.06058883666992 C 159.3584594726563 8.710808753967285 160.2269287109375 7.134178161621094 160.7573394775391 5.501118659973145 C 160.9726867675781 4.838153839111328 161.1307678222656 4.170763969421387 161.2301635742188 3.511734008789063 M 163.7087554931641 7.62939453125e-05 C 163.9973297119141 8.392333984375e-05 164.2494812011719 0.2196369171142578 164.2817840576172 0.5126781463623047 C 164.7025604248047 4.348878860473633 163.3115844726563 8.63162899017334 160.5607147216797 11.96878814697266 C 157.9470062255859 15.12917900085449 154.1198120117188 17.09193801879883 150.5720520019531 17.09193801879883 C 150.3229827880859 17.09170913696289 150.072998046875 17.08203887939453 149.8281097412109 17.06292915344238 C 149.5571746826172 17.04198837280273 149.3380279541016 16.83412933349609 149.3023529052734 16.5648193359375 C 148.7333679199219 12.2604284286499 150.8931579589844 7.990108489990234 153.1040191650391 5.428878784179688 C 155.7055053710938 2.381748199462891 160.0579833984375 0.1482982635498047 163.6863098144531 0.000518798828125 C 163.6938171386719 0.0002231597900390625 163.7012786865234 7.62939453125e-05 163.7087554931641 7.62939453125e-05 Z" stroke="none" fill="#0f7cea"/>
        </g>
      </g>
    </g>
  </symbol>
</svg>