<svg xmlns="http://www.w3.org/2000/svg">
  <symbol id="icon" viewBox="0 0 77 69">
    <g id="abc" transform="translate(0 -0.5)">
      <path id="Path_50" data-name="Path 50" d="M235.26,168.5a13.256,13.256,0,1,0,13.256,13.256A13.271,13.271,0,0,0,235.26,168.5Zm0,23.5A10.243,10.243,0,1,1,245.5,181.756,10.255,10.255,0,0,1,235.26,192Zm0,0" transform="translate(-188.562 -142.693)"/>
      <path id="Path_51" data-name="Path 51" d="M301.51,211.5a1.506,1.506,0,0,0,0,3.013,3.77,3.77,0,0,1,3.765,3.765,1.506,1.506,0,0,0,3.013,0A6.785,6.785,0,0,0,301.51,211.5Zm0,0" transform="translate(-254.813 -179.219)"/>
      <path id="Path_52" data-name="Path 52" d="M45.606,71.311A1.506,1.506,0,1,0,42.93,72.7l4.055,7.833a1.506,1.506,0,0,0,2.7-.041l2.455-5.111L54.8,80.529a1.508,1.508,0,0,0,1.338.814h.022a1.508,1.508,0,0,0,1.336-.854l3.762-7.833a1.506,1.506,0,1,0-2.716-1.3l-2.455,5.111-2.667-5.152a1.506,1.506,0,0,0-2.7.041l-2.454,5.111Zm0,0" transform="translate(-36.32 -59.453)"/>
      <path id="Path_53" data-name="Path 53" d="M117.495,3.513A1.506,1.506,0,0,0,118.56.941a1.506,1.506,0,1,0-2.129,2.13A1.517,1.517,0,0,0,117.495,3.513Zm0,0" transform="translate(-98.516)"/>
      <path id="Path_54" data-name="Path 54" d="M77.125,26.409V6.525A6.032,6.032,0,0,0,71.1.5H25.3a1.506,1.506,0,0,0,0,3.013H71.1a3.016,3.016,0,0,1,3.013,3.013V26.409A3.016,3.016,0,0,1,71.1,29.422h-7.23c-.044,0-.086,0-.128.006a19.687,19.687,0,0,0-10.589-8.854l2.233-4.649,2.667,5.151a1.5,1.5,0,0,0,1.337.814h.023a1.507,1.507,0,0,0,1.335-.854L64.51,13.2a1.506,1.506,0,0,0-2.716-1.3L59.34,17.01l-2.667-5.152a1.507,1.507,0,0,0-2.7.041L51.523,17.01l-2.666-5.152a1.507,1.507,0,0,0-2.676,1.385l3.334,6.44a19.613,19.613,0,0,0-8.16.538L44.725,13.2a1.506,1.506,0,0,0-2.716-1.3L39.555,17.01l-2.667-5.152a1.507,1.507,0,0,0-2.7.041L31.738,17.01l-2.667-5.152A1.506,1.506,0,0,0,26.4,13.243l4.055,7.833a1.506,1.506,0,0,0,2.7-.041l2.455-5.11,2.666,5.151a1.471,1.471,0,0,0,.159.239,19.714,19.714,0,0,0-8.768,8.106H6.025a3.016,3.016,0,0,1-3.013-3.013V6.525A3.016,3.016,0,0,1,6.025,3.513H12.2A1.506,1.506,0,0,0,12.2.5H6.025A6.033,6.033,0,0,0,0,6.525V26.409a6.032,6.032,0,0,0,6.025,6.025H28.271A19.578,19.578,0,0,0,56.45,56.04L68.405,68a5.108,5.108,0,1,0,7.223-7.224l-4.7-4.7A1.506,1.506,0,1,0,68.8,58.2l4.7,4.7a2.1,2.1,0,0,1-2.963,2.963L58.977,54.305a19.564,19.564,0,0,0,6.148-21.87H71.1A6.032,6.032,0,0,0,77.125,26.409ZM46.7,55.632a16.57,16.57,0,1,1,16.57-16.57A16.589,16.589,0,0,1,46.7,55.632Zm0,0"/>
      <path id="Path_55" data-name="Path 55" d="M430.531,343.223a1.506,1.506,0,1,0,1.065-.441A1.517,1.517,0,0,0,430.531,343.223Zm0,0" transform="translate(-365.303 -290.722)"/>
    </g>
  </symbol>
</svg>