<svg xmlns="http://www.w3.org/2000/svg">
  <symbol id="icon" viewBox="0 0 72 72">
    <g id="abc" transform="translate(0 -0.011)">
      <g id="Group_10" data-name="Group 10" transform="translate(0 0.011)">
          <path id="Path_35" data-name="Path 35" d="M70.237,24.77,47.389,1.923a6.564,6.564,0,0,0-9.263,0L1.912,38.138a6.564,6.564,0,0,0,0,9.262L4.73,50.217h0L23.665,69.153H21.044a1.5,1.5,0,0,0,0,3.006H51.106a1.5,1.5,0,1,0,0-3.006H35.116l35.12-35.12A6.557,6.557,0,0,0,70.237,24.77Zm-2.126,7.137L31.9,68.122a3.518,3.518,0,0,1-2.5,1.032h-.011a3.516,3.516,0,0,1-2.5-1.032L7.919,49.155,42.7,14.376a1.5,1.5,0,1,0-2.126-2.126L5.793,47.03,4.038,45.274a3.558,3.558,0,0,1,0-5.011L40.252,4.049a3.559,3.559,0,0,1,5.011,0L53.4,12.181,18.616,46.96a1.5,1.5,0,1,0,2.126,2.126L55.521,14.306,68.111,26.9A3.548,3.548,0,0,1,68.111,31.907Z" transform="translate(0 -0.011)"/>
          <path id="Path_36" data-name="Path 36" d="M175.052,305.381a1.5,1.5,0,0,0-2.126,0L161.1,317.209a1.5,1.5,0,0,0,2.126,2.126l11.828-11.828A1.5,1.5,0,0,0,175.052,305.381Z" transform="translate(-138.018 -261.97)"/>
          <path id="Path_37" data-name="Path 37" d="M196.118,385.057l-4.851,4.851a1.5,1.5,0,1,0,2.126,2.126l4.851-4.851a1.5,1.5,0,1,0-2.126-2.126Z" transform="translate(-163.935 -330.417)"/>
          <path id="Path_38" data-name="Path 38" d="M253.482,353.382l-.638.638a1.5,1.5,0,1,0,2.125,2.126l.638-.638a1.5,1.5,0,1,0-2.125-2.126Z" transform="translate(-216.835 -303.206)"/>
          <path id="Path_40" data-name="Path 40" d="M311.176,57.971a1.5,1.5,0,0,0,1.063-.441l.638-.638a1.5,1.5,0,0,0-2.126-2.125l-.638.638a1.5,1.5,0,0,0,1.063,2.566Z" transform="translate(-266.033 -46.672)"/>
          <path id="Path_41" data-name="Path 41" d="M100.644,355.373l-.638.638a1.5,1.5,0,0,0,2.126,2.126l.638-.638a1.5,1.5,0,0,0-2.126-2.126Z" transform="translate(-85.535 -304.916)"/>
      </g>
    </g>
  </symbol>
</svg>